<mxfile host="app.diagrams.net" modified="2021-09-08T01:50:55.944Z" agent="5.0 (Macintosh; Intel Mac OS X 10_15_7) AppleWebKit/537.36 (KHTML, like Gecko) Chrome/92.0.4515.159 Safari/537.36" etag="5Fkmu6Y0-L-az_-ZKyq3" version="15.1.1" type="github">
  <diagram id="2f404044-711c-603c-8f00-f6bb4c023d3c" name="Page-1">
    <mxGraphModel dx="1746" dy="1087" grid="1" gridSize="10" guides="1" tooltips="1" connect="1" arrows="1" fold="1" page="1" pageScale="1" pageWidth="583" pageHeight="827" background="none" math="0" shadow="0">
      <root>
        <mxCell id="0" />
        <mxCell id="1" parent="0" />
        <mxCell id="1cblipu1BqGZto9yZwqj-213" value="" style="rounded=0;whiteSpace=wrap;html=1;fillColor=none;" vertex="1" parent="1">
          <mxGeometry x="630" width="370" height="220" as="geometry" />
        </mxCell>
        <mxCell id="1cblipu1BqGZto9yZwqj-203" value="" style="aspect=fixed;perimeter=ellipsePerimeter;html=1;align=center;shadow=0;dashed=0;fontColor=#4277BB;labelBackgroundColor=#ffffff;fontSize=12;spacingTop=3;image;image=img/lib/ibm/devops/artifact_management.svg;" vertex="1" parent="1">
          <mxGeometry x="670" y="58" width="60" height="60" as="geometry" />
        </mxCell>
        <mxCell id="1cblipu1BqGZto9yZwqj-205" value="Git repository:&lt;br&gt;- URL&lt;br&gt;- Path&lt;br&gt;- Branch" style="text;html=1;strokeColor=none;fillColor=none;align=center;verticalAlign=middle;whiteSpace=wrap;rounded=0;" vertex="1" parent="1">
          <mxGeometry x="645" y="138" width="110" height="20" as="geometry" />
        </mxCell>
        <mxCell id="1cblipu1BqGZto9yZwqj-207" value="" style="aspect=fixed;perimeter=ellipsePerimeter;html=1;align=center;shadow=0;dashed=0;fontColor=#4277BB;labelBackgroundColor=#ffffff;fontSize=12;spacingTop=3;image;image=img/lib/ibm/devops/artifact_management.svg;" vertex="1" parent="1">
          <mxGeometry x="795" y="58" width="60" height="60" as="geometry" />
        </mxCell>
        <mxCell id="1cblipu1BqGZto9yZwqj-208" value="Git repository:&lt;br&gt;- URL&lt;br&gt;- Path&lt;br&gt;- Branch" style="text;html=1;strokeColor=none;fillColor=none;align=center;verticalAlign=middle;whiteSpace=wrap;rounded=0;" vertex="1" parent="1">
          <mxGeometry x="770" y="138" width="110" height="20" as="geometry" />
        </mxCell>
        <mxCell id="1cblipu1BqGZto9yZwqj-209" value="" style="aspect=fixed;perimeter=ellipsePerimeter;html=1;align=center;shadow=0;dashed=0;fontColor=#4277BB;labelBackgroundColor=#ffffff;fontSize=12;spacingTop=3;image;image=img/lib/ibm/devops/artifact_management.svg;" vertex="1" parent="1">
          <mxGeometry x="915" y="58" width="60" height="60" as="geometry" />
        </mxCell>
        <mxCell id="1cblipu1BqGZto9yZwqj-210" value="Git repository:&lt;br&gt;- URL&lt;br&gt;- Path&lt;br&gt;- Branch" style="text;html=1;strokeColor=none;fillColor=none;align=center;verticalAlign=middle;whiteSpace=wrap;rounded=0;" vertex="1" parent="1">
          <mxGeometry x="890" y="138" width="110" height="20" as="geometry" />
        </mxCell>
        <mxCell id="1cblipu1BqGZto9yZwqj-212" value="Microservices" style="text;html=1;strokeColor=none;fillColor=none;align=center;verticalAlign=middle;whiteSpace=wrap;rounded=0;" vertex="1" parent="1">
          <mxGeometry x="657" y="10" width="40" height="20" as="geometry" />
        </mxCell>
        <mxCell id="1cblipu1BqGZto9yZwqj-214" value="" style="shape=flexArrow;endArrow=classic;html=1;endWidth=76;endSize=9.89;width=62;fillColor=#99FFFF;" edge="1" parent="1" target="1cblipu1BqGZto9yZwqj-215">
          <mxGeometry width="50" height="50" relative="1" as="geometry">
            <mxPoint x="814.5" y="220" as="sourcePoint" />
            <mxPoint x="815" y="300" as="targetPoint" />
          </mxGeometry>
        </mxCell>
        <mxCell id="1cblipu1BqGZto9yZwqj-215" value="" style="aspect=fixed;perimeter=ellipsePerimeter;html=1;align=center;shadow=0;dashed=0;fontColor=#4277BB;labelBackgroundColor=#ffffff;fontSize=12;spacingTop=3;image;image=img/lib/ibm/devops/build_test.svg;" vertex="1" parent="1">
          <mxGeometry x="785" y="286" width="60" height="60" as="geometry" />
        </mxCell>
        <mxCell id="1cblipu1BqGZto9yZwqj-216" value="" style="aspect=fixed;perimeter=ellipsePerimeter;html=1;align=center;shadow=0;dashed=0;fontColor=#4277BB;labelBackgroundColor=#ffffff;fontSize=12;spacingTop=3;image;image=img/lib/ibm/miscellaneous/ibm_containers.svg;" vertex="1" parent="1">
          <mxGeometry x="670" y="420" width="60" height="60" as="geometry" />
        </mxCell>
        <mxCell id="1cblipu1BqGZto9yZwqj-217" value="" style="aspect=fixed;perimeter=ellipsePerimeter;html=1;align=center;shadow=0;dashed=0;fontColor=#4277BB;labelBackgroundColor=#ffffff;fontSize=12;spacingTop=3;image;image=img/lib/ibm/miscellaneous/ibm_containers.svg;" vertex="1" parent="1">
          <mxGeometry x="785" y="420" width="60" height="60" as="geometry" />
        </mxCell>
        <mxCell id="1cblipu1BqGZto9yZwqj-218" value="" style="aspect=fixed;perimeter=ellipsePerimeter;html=1;align=center;shadow=0;dashed=0;fontColor=#4277BB;labelBackgroundColor=#ffffff;fontSize=12;spacingTop=3;image;image=img/lib/ibm/miscellaneous/ibm_containers.svg;" vertex="1" parent="1">
          <mxGeometry x="910" y="420" width="60" height="60" as="geometry" />
        </mxCell>
        <mxCell id="1cblipu1BqGZto9yZwqj-220" value="Container Image" style="text;html=1;strokeColor=none;fillColor=none;align=center;verticalAlign=middle;whiteSpace=wrap;rounded=0;" vertex="1" parent="1">
          <mxGeometry x="680" y="490" width="40" height="20" as="geometry" />
        </mxCell>
        <mxCell id="1cblipu1BqGZto9yZwqj-221" value="Container Image" style="text;html=1;strokeColor=none;fillColor=none;align=center;verticalAlign=middle;whiteSpace=wrap;rounded=0;" vertex="1" parent="1">
          <mxGeometry x="795" y="490" width="40" height="20" as="geometry" />
        </mxCell>
        <mxCell id="1cblipu1BqGZto9yZwqj-222" value="Container Image" style="text;html=1;strokeColor=none;fillColor=none;align=center;verticalAlign=middle;whiteSpace=wrap;rounded=0;" vertex="1" parent="1">
          <mxGeometry x="920" y="490" width="40" height="20" as="geometry" />
        </mxCell>
        <mxCell id="1cblipu1BqGZto9yZwqj-223" value="Build/Test using OpenShift Pipelines Operator (TektonCD)" style="text;html=1;strokeColor=none;fillColor=none;align=center;verticalAlign=middle;whiteSpace=wrap;rounded=0;" vertex="1" parent="1">
          <mxGeometry x="930" y="306" width="105" height="20" as="geometry" />
        </mxCell>
        <mxCell id="1cblipu1BqGZto9yZwqj-224" value="" style="shape=image;verticalLabelPosition=bottom;labelBackgroundColor=#ffffff;verticalAlign=top;aspect=fixed;imageAspect=0;image=data:image/png,iVBORw0KGgoAAAANSUhEUgAAAFQAAABWCAYAAABRo7HKAAAgAElEQVR4Ae1cd1hUV9o335cvye5mU75ks5vNZjfZzTZNYqUMTGMGZwYGpsHQYfqd3vswA5eODRSxF1AEFCxgLyC2qCgq9oI1yWoSY2LsUZjzPecOo+MwGrNBN398PM997r3nnnvOe3+855z3fX/vmSFD/v/v6SPQZGz6xXxny9CFnjURjZ7WkfB6vqnl3UXaRa8AAJ57+hIMbg+Az3/hdHb2W6ezJB+czBIPP5IpCzvEl44+lpX1NhjylL9ngbPtjQW5K1fVulov1+a2XK91tV6tzW25vDC35fwC59ID9Y6lsxocDZQmtOmFwf3swW+tJ1P6h3NZOfazWcK201nCUyezRJeOZoi+PZIhunYoXfTdwXTxsT18EWnwew5ocYGjxV7jaumrcbUA37EC1DqXgwWOpaDO0Qzq7UtAg30xWGytP95sW2RuMi8a2oGizwc08ajL5zqQiW92qCpHtGvG8zdrywva1eXNW1Sle7Yqi3u2K4vO71Cg53bI847sQjyb9shzp3XKHIq9Ugf5oNTy/jkh+tKjGg4svyQS/eZ8tjD+TLZgxfkswb2zWUJwKlMAjmcKwdFMITiSIQKH0oXgQJoI7EsTgz1p4k+3Z2S8HtjGoF7X5rYe9INZ62q5s8C5HCz0g2lbAuptjaDRVg8WW+tAk2Wht9lSc2W5Zf6SFtP8dx8lyAbdlA/Xaytr2jQVZ9o0E75r05Tf26wqAx2qErBVUQS2KQrBdgUKdsjzwE7EDXbLckGnzAn2yOzeLqn11n6p5csDEsv2AxKj4JxQGBJYQEafP5kjkp7NEZ88ly38/myWAJzGwBT6wMwQYWAeTBdBML370sR9e9LEoDNVAnalijMfJftPKp9h2fBWjav1LgR0gavl20ZTy7t1rmWFdfamGz7NbPQ22hoOL7HWfdkPJlhqng+Wm+aBFuOcr1eZZ9mWIbPehkK0iuf9er22irlBM3nNek1F7ybtJLBJMx60qcsBBHOrqhRsU5Z4tymLbu1Qot9+Ivd4dyGe652I+1on4rq3F3GALqkV7JNYwH6xCXRLjOCwxAAOi7Xnjwm11qNZkg/AkCHPAa32xfM5SExPtqTjnEAMzmYLAQTzjE8zvz+ZKTx0PFN0qV8ze7vTRZu7UsQxe9OkWyCYO1Mk4JNUyXTY1k8CL9TLNe5WxoLclaDWuQIsdC4/AufJJn7Tfy/ULfywwd74ZaNtEWiyLWptMDe8ucxca1turr2+wjQPrDDOBq2GmWClYUbfakP1+dW6Kdp1uqqu9drJdzZoJoGNmolgk3oc2KwZBzarSsEWVcnebYoizzZ1AXW7rPRv28WOP+9CPLf3IG7lLoXjvU65bUynxCzYh5gXd0tMVw5KjeCQWA8OizTgiFADjgmV3hNCxVcnhHJ7jwCpOy2Q3D6dLQJwePuPnizhyrNZ4uGH0gTqIxmie4fSxXCIz97BEv8afntnqrQKgrmdLwXbU6TruhDkf0Jh8pPKalzLrQtyW0GtcxlY6Fy2GQ2YGxsddeQma91XzdaFYKmpZnaHsOalemX96y3GuXmtxtmnVhpmeFfpq8Ea/VSwTl8F1msngw2aCgA1s00z/ps2TfnqzbrxyA7NuN8HC9mjrXqxE8m9tVfhSgt+Bof4QZGGclioqzoq0hw7JlR5jwvl4IQAAT0CBJwWSIAfzHNZgjtns4RNPTk5ONjO4TTxmMMZoi8Ppot6D6YLxwe2/UmKWLYjRQq28uEh272Blv2rwOeDcl3jWjFtoX/OtDcvByj4r8CGVxkXvNNsqfl2mWl+X4u5RgWfwaECh/cqXXX1Gl2Vd61uCliHgQmBnOhtU49bBEGEmh7YFrzuQuyv7pZ6kLWZ2lf2yJy39skdqQeE1r/ulVg+DK4L++mJ0754UqhIOymQX+0RyEBPjhicyRaBc1lCcC5TcOQzieQDgKKYzMfThO8dzRDdOpwhBgdSRfXBGridJ4uFYG7my0AHHzmyPUM5+AvTQufS+jrHUrDI3gQaHEsa0H7hAj9uhaVWAod5i3H2N63GmWPgMwjWet2U7HW6KTfXaSuhZvZu0lZ0bNJMpD9ubtopc9H3yD1f7kJco7pk9lv7ZPaU/TLL1G6JaVJgn8HXmE0pEE88my24DsGEw/xMlqD5hNg3nGH9IxnCpd3pItCdJloFF6zgNrakCsM6+DLQniwD7XzkRFuO+o3gOj/5vs6xtKHe3tS/kjeGBBR20mKcNWWlcRZYZZzx2QpD5WvrdVNFa3VT7kEw23SVYL123KQnNKUwmXviql7cL7XeOiixDBjyj/soaKifyxJegmbRyUwhOJEp+NdRvurl/RmCHDhndqdJbh/iif8cqo2NSeIxEMyNyTKwKVl+oo37FABd5FxS1QDtTFsDWGJrWBE85P2CwflzlXH6rjWG6r61+qq2tdrJveu1EMiKy23ayic2QXbyjb/olFoJB7MtvzogtWCAnlYo3tov1gyYZ/19B58hqMczBZuOZ4rA0QwROJwh2tmdJr6zP038fVe6hBNc33+/KUlG35QsA+t4CNiQJD/UITS85n82aOcGe5NpsQMa7XWgyVq35XFatkZfnbAOLkDayQCCuVEz6e5GTWX0jxFmr8ScfUaTB7rEpphuqfnWUYmJf1is3XxMrF3xY9qBdY+ki1oPQRsz3Wew702Tzn1cG23JEvn6JASs4cnBGp5i18KnsSg1WRZSmmz1oMmyADRbFpyo0la9+Cih1mqrIn2aWQE2qSdd26CtSHxU3UeVd6rVb+yXmtMPKR2vHxQbbp2UmlKPyozDDgk1Hz3qnUeVH+ULf3cwXbJtf5oY7E2TgD0pogmPqgvn9TU8ZCYEcyU8OIo1s0Y/BbNpunL6603Whd83W2rAMnPt9SZVze9CCdWBdjy/QT+5vV8z4WquD1XvcWVwwesgo88DBPmf3ZnaV46KdbeOivRZR/n8F+AiAlfrxy1oj2q7K11yFBrsu1MlvTvSZcNC1YPauIan2AHBbOEqQAtbMSVUvUEpa7bU7IbezwrzfNBimqUO1egGTYURej8bNZO8bboJ00JZA6He60Jcb++VmtMPSC3jD0gsTYclxs2HxYbuwwJNz2Gh2ntMpPriuFBx9KRAvqtHIF91Nls860y2yHgiTTwG8PkDzK5QfexJk1B3p0oAtDG3p8jOdvCFA5RiGU/9p1U8xacQzOVcBVjKQR4514bq40eVLTPV5C83zYWuJGgxzroQbD+2mar/tkFbgXk/7doJl9aoJ/7pcR3AhWef1Ba5F3Gs3Cu13e2WWcEBiRlzJQ+K9eCQSIt5P0eFKnBcoMAM9pM5MnAqR4LZmOezReB8DuZOnjmVKVT08EW/8duaj+p3W4q4cBtfCrbwpd7NKYguuN5KrpzdwlXcW86Vg6UcxdVFcdpXgusM2n2reS6xxTjndothJlhtmgFWGqbGBTa+UVMxdZN2ImjTTIAeUGrgs+DrTpmD24m4tu+R2e74/fIDEuiXG0AgmMeCwOzJ6fd++v3yniwhOOmPGGWILhzNEE05nJ7+2+D+/PcdZPLzW/mS3dAsauMjn7b2u5vwOYzntnDk23yaqQBL2KqZ/veeynmFoea1VuOsMyuNM8AqQzVYZ5zW5O9orbbqxY2aiRfbNONBu3rcRn958HkT3/7qbsRV3YlgEaP7QY4HYOr6/XI1eJRm+oMcMGLkBxMGOA5niACMGHWniY938YVw8QoZ1NjMlyJtfARsTEbAWp6ixC9jC1seD8FsZmNg3mjgqjE31f/8qZxXGaeL1himgTW6KrBWN+X6JlXlP2FHm7QVbh+Y5X3tyjJ+qM47+OjLnbLc5Z0y5709MjvokvgiRhiYYgM4KHoA5jGhEpwQ+PxyOMx9rqQQixidyRKAnn6D/Vh/HBOCCb0fuJJ3+WKZX3byxdzQcqhe3pCEfL6Wh4C1yci/1vOQt5vIqpeXcxVbIJiL2UqwmKPa3cRHXg31/qCXrdFVd0G/HAtyqCt6NunK/9imnnCjXV0OtqjLvuxUlw5w1aCBvhtxLu5EHGCvzAa6pBYs/BYM5lGhGsBh7gfz1H0wRQ/AxDRTCAaCKcLA7EwTw5Ucht8+28EX/z0UAOt5suzVPLl3JU/+fSsLYa7gKFKa2co7EMwGtqq3kafJCPXeUylbZ6jirddO7oXhtzYtFn7bsUU9DoIJOpTFRaE63Ys4NHsQxx0MTBjH7F98ujHN1GLD3AfmA808lSMFp7Egx32fHNPME5lCcKw/KAwNdr9m7n0QFAaf9IfftqbIzm7LQrA4bKBccO5cyVV8uoIrByu4ivYmtuJyP5ignq1e2vU0bM9AAQKvoXu5QVe5cZN2AhbLbFeVgc2qErBFWXJ7gwJ9K7AuvO4U24d3ypzX90ptYJ/UB+YBiRFAMA/1D/NQYN4f5liAQ/gAzAC6AoK5L00EMDDTsAj7fTC39EeM2vmyycEyNfH5/93CVbYu5ShAU/8wb2CrQD1L/UVdgnZ4cP2nfr9CWPlam3rcMQhmh6oUbFUWg23Kou3BHcOwWpfM1YKB+ZBm+swiGBiGi88xod8sQoBfM32LD4wW+bgfqJnQJ/dF2H2aCbmfB5oJbUwJ8JlFMiz81oYFOGTftrGkA1b+Zrbc0sxWgkbfMAeLWGpQz9LoIdjB3/FM7jdryukdqtLeLRBMRSHYoSx4KFALhegUm4Z3SW3f+jUT0hXdMMIu1n56VKTddkyk2n5coPjshEDuPYHZmA+GOQy/+bgfAcCGeYBm+om0fs280ZkqPbArVbb5kxRZ9xa+7CaMZUIwNyTJQL9fvhId4ouH+sFZnKgKa+Ko4JwJFrFUfbUs1dzgOv66z+TcIURf2qYs/sZHpBWAT5QFouCO90ns8zDuR2IGB+B8Kdb3HRJpZ3YrFO9Awx4exxDk7R4BMr8nR+I9neNbfB4Qaf2s5MNEmp+VBJ2p4su7UsSxuzMzX4GjYRMfeXUjX8ZtS5bdgGDClXw1XM2TlGAFRzUiUL4OsvClBrbqGtTMBSzVzQVcFT7w+TO/3qkofme7ssgLWcldChRsV7jJgULAAMc+ieU6XIAOiH2aeVCsbYPB3tM5qpjjQkXTiWz5ouNZsqhDGRmvn8kRdQfamMEU78F+irffLAKdaZLv9mbIYjtzct7YwpflbeHL1mzmI9bVGRmvb0yW8NfxkLsQzPt+OVduCZQPXi9iqbYtYKlALUt9b0GCNjn4+TO975ChI3arCjGKt1OeBz5B3H8JFGCf2MLtlvo0Exvm0JUUa3OOCzUfnRAorkPuB7MxBdJbZ4TIR6cyhCP8w9xvsEO+3G+ww2HuAxMLcIBdqZIOqJXbkmWzt6TI+tr5MCAs9W5Kls2Acqzmybv9YEKDfQVHWR8oH7yez1KNq2GpwdxENZifoLEFP3+m99vkedTdChTjy3fJcu9BHihQgP0iYx6cM6Er+YCVVF08IVB8fh/MHAk4myMG57JFpfDdM1mCz0KBuT8ATB9fLgE70sSejnTkTThnQjD9c+Y6HnJzNU8GI0Z9viCHHDRzFKCZo9odKB+8rk3QZs5L1IA5CRowI0E/Pfj5M73fLc9j75bngd1ILuhEXFdAENl2UGQofRhMJTh+fzX3eT+QlcSItBzREij8qUzhBZjJcSRAM/1gdqb5NBNSvDBitC1Z6mpLFhKgXw4j7P45cxVPDlph6I2rAMswIKErqQSLWaoDwQDNYWoJs5kaMJOpBTPitS3Bz5/p/V6FJ60TgollctjOBXd+QKCJPiTS3Dni934gxZvjM4tgkAOykv0kGlzN757MEl4KBNNnsPu9nwdgQr4cspIdfNmddj5yHYK5vn8B8oMJDXY/mNBgb2SrwGKOZoA9Oi3eMGImU3tvGlMHquO0HcHf8EzvDyhzBXtk0JW0gy6Z+Uiozk/kqJKPC5T3jkO/PAfOmX6zCGomzOLw++WC+64kzC+CYB5Ik4AD6VKwL10K9qbJwO5UKZZ84Kd4/UQa1Mw1PAQ8CszFHDVoYKmOz4t+wHz6ZZ3GNPxzGlN3Z2q8DlQx9QPsaH+9Z3LeL3flQFdyn9QK9kssR0N1CiPrpwRy4kmBvK5HILt6ViDpT4nB6N1+7+cBmHABOpQuPnkgXTKnO01i3JsiSt+dKmV/kiJO2pEqkW5PlZZtSZFtbOcjtzYlI34bsx9M6Eb2ayYc4mxl32KOak89S6WBDEAo+SCgU5m67yfH60ElU/efBbRb7kiFYMKg8AGJ8WwogQPLjvL5L5/OyrGeyxKeh/Mm9IAgxRsQ5Lh3oD85C67eu1NF7E9SpFU7UkQrt6VIF3UkS8270hTvwTbb+Yp31vHk7ZD78WsmnDNX8JSgma283shSLamPf9juDJTFfz2dZfm4Ml53rzJeByYy9Jv95f+R836xOe6g1ALBBIfEhltd2bo/PokgkLI4lSH+88nMnLgTWeIm6EoeyRBt7+Jn/xE+25suHd+ZKvmqM00KdmJ0BZYSA7M4YPLBvU18ZHM7B/nL2jjti2uSEGsrT9HbwlPcWs5FBI0sxchFcZlPFGWH5NuUBJ2+Il4PwQQTGMaFTyL/U6tzQKj76yGpOTDCfvuwUDn3JIL8AxJsT5IBfCRD3HYkQwwOpopGQUH38SUfdKVJoY2JBTn66QosiwOaRTD5YH0S4l3DQ6T+D2vhIo2+BUj5EIPgfx5wfg766RV0yf9OjTeKKuN05yYzDRiY4+MMfePphvttBrzz7C6h33tQrF9wRKzzZb6J1LeOC5VLTwrlX5wSyI6cFcgW9GSL1aezJR9C6iGUZIczRBcOpokug34/eyef/4vONOkWqJmhwITJB2t58qtrkuRYqg9scxlHkd3EVngXs5TWUH3U8FW/mxWn4cxgaidOT9C3VzH1X02O1x+siNOfg5pZzjCA8jjjFxV04weh3n+mZWDIkP86IlB/BiNGJ0XQzpRXH1JmvH4qWyY8my3eci5HdOV8jujO6UzBFz1ZwqaTmULZoQzB6P1pab/vycx8pTtd9Nk+DNAhDyWfbU+RzNzKl32zORm505aM3NvAQ+6uT5JfX5Mk717LUzyUNLGYrcppZCu9DWxl3ny+9jd1LP3f5yaoEuckaitnJ6iPzWJqb89M0N2YxtT2VMZpqiroxmETaeZ/jKfrvx3HMIBSugGU0E3FzxS4x3V2VKQUnRLBKDuWRnjvpECKwPpwPjzJz3nn0ywh4UyWQNSTIZx0LEu05Ui66PNDGaKvu9PF57rSxHdhtvCuJFFEYB+QvdzER/64kS8jbeYjTJges4YjG7EqEfllYD143cBWNdezVaCOpf66lqX6qpalvTw3UX1kToKufhZTb56boE2spquHLaRZsLTECTR9xPg4/Rc+MI2ghGFqqSE/WVp5cN9P6/65kwLFnFMCWR+MZZ7JFt+5kCNKeBRfDod/Fy/r7T08CbErRTQBJh7sTJGt7uCrXg4WEJpd65IUZWvZ8qHBz+B82MhWpdazVX11iepjtSwNqyZR8w8/cMH14X1VnPY3ExiGbj+YxTTj50UMfUiaJNT7z6wMLkI92ZKlfu/nbJbg+ulMoeyHBOjiI6/uTBFv3ZEi6dvCl27tSBLfnxvhu2s4MuEqnrx3JVdeFxj4hSt5PUeF1rNV3yxMVF+pZamJP9TXeLph1IQ4Qw+cM0vpRlBMN14uptvCH8WO/lB7T/05zM08myPsOpsl7PPx5cK+E2nCwgs/sJNiA83yq618ydqOFNnd9mTZ7Q1JkqXrk5X2tVz5olU8+R1/xGgZR3GsmaWsbGQp6xpY6i8aWCpvHUv9rwUsteBxgWFoHlXSDaPGMwynyx6A+V3RWD3rqYPyUzv4PCfnjdNZotZT/Qb70QxR78E08Y59qcLIx+UjwQBxezLC35SE7F/vW8kHeD+Q+4FBjv4I+9WFiaopDYmafzyuXQjmpDjDuAkMw3dQM0t8mvlFUayFHKjxP/W7n+r70CM6mSmsOZIhuun3y/enim7sS5UUd+fI/hYqaxgKBJnI9Uny2b4ou9zbylPcauHJv13OVVxeylF+vYSt+q6BrbpXz1KBhSzVmdpELe0RoDxXzXW+UcHQcScydCfHMwzAp5kGb0mc8VQxTf/Y6QHazwgZfVNPtXysItkTEZJdKSM77EKSXSskuzlCov2jDLxj8NPEH/dfgVv+DmeKUrvTRVceEGli7+4UycVPUiSNO1KlkcF5SBt58vlreYh3FU/xySquUrSSp4xcmagetjRJ/leoicu52uENLBWjjq2ZUMNSXZvP1pyfzjQ+lIVcTVW/URmns1XG6Y9MZOhvw8XHB6YJFNNN81CaZQArG/gdBgb6njbGXq2KsZ9QxDi+kcc47srIDiAhOYGI5AQ5JOe9bGLulUySuzud4LaqyOiAhTSwvUG/hu5kV5pkNYxl7koVB1K8MMLe2Z4it2ziI/hWluSDdTz5uVU8+Zfr+ZL/fZwgTUPRF+az1MvnJqqvzWbq6TMTtMOrmca0qnjDwslM/XeV/a4k1Mz+Yf5ZAc2Q+bh51kh3fKCnWCfqKPabaoodKCkOII9xABnJ0SchOc+Lye5DAlLu8Syi+4tMYm5fGtENUggekETwdHOJbkrcB9pH5ss+7lv+rWcHsxVv7UqVfBWK4t2YLPOu5yE31ybLv1jJQ75v5Sq8K3iK08vYSuliruqfC7g5b0CffRpZ9fJ8turduSw1cU6iqm5uoubmrARN3/QEzZfTmPpvq+L1WICjIs7nl/s1s4RuAiUMY0gPCn4MBNlIsSn0VNslLcXeB8FU+LSyQ0Z2XpeSXXuFZPQ9Axl9LSfc+QY/Ov+PmWR3Ap/o3plE8AAuIQ+w8Xm3E6LRAYzvvwXWk760iy8TbuVLe2HyQXuyzNuWLFvdlixfvp6HXPTHMv10BUw+aOaoQBMWx1T2LmKpri1gqW7XQN6H5aMrZjI1YDpTC6qZOlAVrwOV8bq7FfG6zklx+tnj6YZzpfcXINNhlBw6R14RZXnLQLVN0lNsd7UUG9BQ7F+rqI55shj7MEmMM1pMct4UEWyaUN+YQHCN4uDzjrHx+SABnwfio1HAwKG1THzZs5lbt6RIC7fwZd773E+y9FJrkmRkC1v07kqOvLKFq7jZwlVi3A9cybHkAxb0flSQ4gXzE31EGuR+Zj0Eph5Uxmn3TaAbY0up6jfKGcaVZXSDtxiu5gzTzSKa5f1QgKBD0ReMVGu7nmIDWoodaKj2r5Wxtkh+f5KDiOxMFpBc94RkW2Tw+2x8HpcTnXeVTUBBAj7/y/jo/O8YUSigRaHeWBxaGVx/0O/hlr+OZNlFCGZ7EnJ6Y7LUtYGHdK3hyb9cmaRIgR0u5yreamYrpcs4yrlLOKrt9Sz1hXqW+sYClqq3JlHlnZuo9s5J0H4/i6m9PIOpO1zNNLRUxekLJtP00GV9bkKi5f3xDGNdGd3QW8Iwni2im/oK6GbgoRmxTWiBH6Ul2/5gpNjb9BBIis2rjrF/r6Q4TsFh7a+XQ3YnZJNcdzNJrociWDwiSuTgPXc5hLw9CSQPDloEOFzFL2g4dCUVVwBicAV9pAiYn/AU99pvTpIl+SheGdiUhMyC8xZMMljNQ5gruIo9y7jy5nqmb7catClhdL0JZ/xFQ7r5zVoO8peZbPnQeSz93+fEaf9QFad9pYnPfyEw1Xw8TZ9QzjBeLmUYDhWN1dKKxlr/itJM33poZuAaa7rgB8l/NlJtqzDNpDqAOsZWq4xxLkZinFcQsvMf/jpCouejTKLrmzSS+yEmlI3PW52Iz/PScehDkSnyiMrXyFGFl0mRhYAQWXQFF/Tc3+5PPkOANichs/xE2mqeOCawUfi8ha0dujhRkbCMp/3Dk/4qBAS0Ks72h4kMLW8cXacojzV+5I+/QtvUE2ve7MYAtQJbrAHLYYXDXE+1TINgaih2r5pir4LaLY9xUaVkxz0RyTEPGY3+Uhxt+3U60ZOSTnRfSiW6L6Xg84u4+Dx+PNHzERuP3mVG53kCv8F/TcQVjiREFl6Niijqw0WUOP3lg3qGVEY7H9kCibR1POQK1MxB7eARjblpJqVrrAU4x9qAZawlC1YzUB2IgQqHuR2oqLadyOhZ93cZi0iuUgEpF2QRXOczSbmX0okekEJwgySCG3AJHsDB54FEPOpl4vPvJUTnh2Qm4MiLiihZERlRBMIjigewwI8Q9ccVQ5tyQxJyDMsW5snbf9zb/35tN8P2d0esFVipVmCKtaEqsvV3eortAgRTTXECOdlhD2wdiS1/NYuYuz+TmAt8NqYbJBM853mEvE84eM/RRDzay8Tng7hotJcejT4ysh8RUZgVEVECxkSUgFGjCkcH9jEo1yv50vfXJcm/hkTaKq5iAC8+KJ2EaATloy9YqNYbRqoVGKn2Oh3FfgzTTMxgt38rIzvvBM6ZGQS3MYPo9qYRc6Fm3uIRPMLAZuOjUCIjGr1Gj0LB2OhiEIsrDLkBbeTI4j9hYIaXgY8jiwfsMgls89+6XpOERKziye/CTI5WnsL8pI1MZxoJ0xN0B6sTdFQ4J1bGG2omMgxLoIH/pG2YYh3n4Xypo9pu3Pd+yFY3QnLFSMiOq0KS83w2yTMlk5g7I4Po7u33frr4RHtIsOh4z/DYKPQKBVcAKLiCilBy4HAV74wMLwEjwsvAR+Glg58rtTpZzutPi/Eu5yrEoYQIVVbN0k2CBvtUpj4LAloRb9gwIc5wszTe8lBkP9S7/jI9xXYYGuwYmDEOOMx3+Z8potC3sonOPZlElzcDG+ZQM3N7OCMemE7+uoFnMg6tJOMKACmi8ERgue8aPDcyotSBgRlWBoaOLh/89MhWHuJZgeUYyb3NXPmA/NGBQvlKqpi6T6YwDWByvM/OHM8wVZfR9d5ShlHyqHeCy7UU2+F+VxIoKC6AkBwP7U5JxTv/lk5wX0slQL/c/WUa0TMyuI3ge0JYAZUYWdQbHVnkxUUW10Z9PHsCxYEAAA0gSURBVAELtoSFFb87IrK0ZHh46dWPwsrAsLDSjUMGMxN6Hkv86xa2vBqC2Z/H7m3iqJ4IDHQI+vzkeP21inidd3y8Fds+WE436qFfXhxnmh38kY+6V8c4jihiHACJcQIZ2flVdj+nBOtDjyiD6F4E50w+wdObTMx7oq3nZDL6fHREYQcuoghERhSDsMji26PCSj8fGV56b3h4KfCBWX7pb+Hlg5env4yHvN3KVWxdzlX0Qb68yZcWAxO2BiS8hgJjAsNArow3AEikof0pNEV0Y2wxwwwK6KZjod4JVaaIcV6QkZ1ASnYAMcnZJyI5G9AhPnY1JcYZnUr03EgmuL1J0XkVP8azIY9AXwvHFS8MiygBo8NLwcjwUjA8vAx8CDUzfFzz0OHlcGNuyE1noeR8bBmc71q5igaYY7SUo7jXzFauXsxRrYVR9jq2KuREHtxgRZxh8sQ4AxhHN9zfkeemWd5HaSaQRzPfRcnmN4PfCb5Hh/JfQGKc12QxLiAkOKxCkutf2SQXyCS6WiU49H9Tie4LydDOJHoucSJRLL0nuI3H34PnxowpjR4ZXjx1RHjpko/DSkr/GjZ+xI/5xzy+/f6nrTwkZjlXcXspR+5dylFOgi7kokRVWR1LDWrZ6pVP0sh4hv7I+DgjKBtruO+RQC/HQzN/56ZZQN5YE/WH2hERc9+Vkp1QM4E0wvXbNGLuu1hQGMYx8e4dfIIH8Ah5gBOFmUeDo00/JNSPfQ7p4eVcxTFszuQozzeyxNjPWUASrT+P/eTjgrywP2gWjWMYbpYzTKBkrO4h4HLHmg9g3g/V/IPmiJTojpeQc4GA5LrijyClEXNTU4keADUTej9cvGfbj/3GZ1p/GU8ZuZyrwmKZ9SzF/ThiXYJ61PxEtXduoubODK7lraksze+nMvX8qUydZTJDr6pMMIzyz5XF8eY/lTEgXWH0llBdD+0tclBNC+yY92NZEPhh2gj0FSnZFqkgObjyGBtVTXW+ISQ5xguhK0l0tvnrksnoS0kEz6c8zJVEe6F/7n/2szvD7SxNbEUHXIAaOapblQFBXah1cxLUV2fDPPZ47ZZqpvbmVKYOTIE5mfE6MClOD8YzDJ3lNGNi6VgtqZRhBoV089Uh/QuI/2PtsVaHNdYKTFTbZi3B+RstxUHTUOyNKor9W4yuIDuBhOQAIpLrSg7J+VU2KRekE1wPRet5xDwzB58PWNCVJKB5/rZ/dufFPGWkfxNVPVt1GSYeBP5Wx2ympmMGUwumMbUAZgtPidN9PTlev38iQ392HMNwr5/7+b6IbjpdSDMBlGYeEFywxNhTTLE2YKDaL+sojoNqiv2WMsYBKYurMrLzkITkOCUkOb/PITlBFtEFMgi5fYFeDyui5LcsfP44Fj4fMKPzASMa7frZAekXqJGNZDSy1XBHGljIUt+rZalhlH3vnES9ZC5P/aeZCTpnNQSTqftqMlOfNSsgR2l8nPUvpXHGkiKa6WwBtpKbgJtmPu2gOz5wUB1/ttAs75uozr9B7sdAtQEd5v3Y7qipzo1KkoMfyDxm4I1/ziK56zKILm860f15TnjpG8kkD4FDzJ/Gjs676gMTvcuIzgf0aPS0X/6f3XkRSy1oYKshmHcWsjT8eQnahXMSNLcwIo2p/Vc1U9dWFa/rncI0nJnKsg347SUYy3RR9b9FaZalWBwz1tznHGu5Yqdav7RSbV+Yqbav9RT7TUhXqCn2G0qyPcuIM/4iFBAZeA+SSnB7Uwief/GI7r08fP4NDiEfht9OxePy5Aw8Wk2DQY6owjOh3v9ZlNWy5ETMNGKpv5/DVGEB3ZoE3V9nYTmZuhPQL4d57BXxupvj6UbCo4TOjTWyc2kwjmm+4hxrW2KhWtcZKdYNBqp9pY7iWK6mOO4pYxwnbNE27JcUQ7WTRnQv88UyMVbyFhuftz4hOi+T3/8PYESjZbE4FFCiCvaHev9nUQZ/7KQmUX17XqK6dx5HS/MLBTUPLlAVDL2qIl73LZbgSjc+MoznoBoZzlgbsMVaD8M2kNHI/8ADWgEqouGfCorjDkJxHoKRdX8fgWdotPMJ7ptJhDzAjc7bmhjtGcYfij70E8axuIKGGFwBIEcW1gW++7O7np+o7oKbqOYkaPJDCTeBrpVhfDnd8JXjEaksdpopyh5rAxaqbcAmCIRiHYWQHH1SsmMnBDlUH8l4tz0ZGux4z7JA3slfF/riMbjCM6TIQi8hsugHswP97z3zM/zAOYm6OrgjbXq89pI2bmAmxQSa5VdldOPXkOJF6fr7dmqgsJD/scbagIlqvxJYDq9lMS469H5EREdIj4s/uvxVLslzgoPP6+UQUJimOOAvJjLfRsZhRNq9qKii+yNpQMX/VAEcinMS1SVzEjRXZzF195MPJsfrl41jDZznShiG0iKa0VvAMO1AQwSL9VTXbw1Uq1dPtfVKcMaHUnIkJIdRQnYBIdkZkvtOJqNkDj7vJhuff5AVPW7AHEuMKiaSIgv7CJGFIDqyEIsWhUeUHBgTOe7nk9Y4J0G9fE6CFtsrCTM5ZiQYwbREI4CxzIp4/YD0FJRm+TCfZv46j2a+5Yg1DYg/Qk3XU2zf6KhOoCBbHtouLiY5G4XkXJBNcD1ET/iViR3tXszG5wEWPh/+xuhD/vno0bN+SYos/IKIKwV4XBnARZZCIg2ERRSDUeGl3hFhZWH+dv5j57kJ2vD7YMbrYAKCZzJTT58aZ4j2pRIa3aXxhmyY0QGFRJnGP+fTLZM8NPO1XJoZOGPNm9EQ2WsairXdR6TZH/rRvxyC6zz0frLJrgG/csuJLohjQYoXDw32/CU0vOd+ZB/Su+RItJiIK5ITwkqo0RHF+MjI4sxwXGnzqPBSMCK8FHwcVrZr6NBnnEkX/J+blaBDMe8nQfvN434SEiYu5FKM76B00wWYfJA71gxyaVaM4rVSLEddQT67kuLSKigwKGy/vzBlRJn/lE2E4Tf3leAFiR2dJ2fh875PwBdAVhJgaTHRRWAsLi/dF057+KcxAr9jeHj5pI/DS8GwsPLvhmLht8Cnz/h6OlO3HdvFG6/B9ro/rvt8mrkRGuy5Y83nHWPNUifNEmEaa6KaqNZqI9V+UR9jp/vfF0ejv5eRHb3QLxdTUSz/M4PkzM4gukE6MXeNv17iaPSXLDw6NxGff4yJL0TouNxwWhRKGYtDZ1BwBb1kXMF5mNHhrx/q/I/w0jc+DCs/MyysrO/D8HFPxCiEamdQyqYxdV9MY+oBdCUf1yDKcLznoZl6nbFmAO3M4Lp6qjVBS3Fs8Eec4HMJ2XXMl+DqUGV/POFX6SRXcxrR7U2NzjX432dF545JxOethcD6y+AZmkZkXMFOUmQRiMYVPBak98joS8PCyrYNC4MsZfkTBcAD+xrU66nx+k+xXbzx+tUTmIbCcUxTYVmcqbAkzlRYEGcpRGPNRfmx1iI3zbLABcGMNV+uCmFOQaEUZAcZDdgrJCLmFuWQXCCL5LoBMznSiO67fILnKp/ouU/xJuBRMisaHeDGwvaIEQVqPK4YREYU7QuLKCyIiCgqHBlWUji8/xgWVlYIjw/DykqHhZX9CwI6LKy0bFAB+rGNTY7X11X4dvGCcQw9lnoNNwUU0U0ABjnyaWYY5AD9YAJbrOUaGoc+0cbWLIJrVA4pD/gpXj7BDXjR7q1PKiM+sigXF4kBiq3mo8NL+rkfP5EGAXxwfBhedvufY0rjn7T9p1JvaqLm/Qlx+qXjGMbPyhiGiyUM48VihvFiIc10EaWZLrpp5ouuWPNFR6zlqjXWAsxUKzDHWo1PIgwfh36QRc4DkOKFYMJsYR7e/US/vzx6NPpmVEThyYiIYjAmohgSaRdHhpddHBFedvGjsPKLw4KOoWFlJz4MKzPDtMQnke1Z1YF2X8jDMNYwwkyx3oJpMXqq7baG4tiqpDhalTGOxTKys1FGdiwVEh2rBUTHhixi7oZMontbOtF9OI3ouQ8mB+8BbDx6LZFQsDM+Gm2n4dANY3HoeioObYnBoUtIEUUNBFxRMy6icG1kROHxiIgSL7QxR4cXr+4HIKRswfbqswLrJ/djirUZ9BTrXV9+EZbHDrlyP8ULBCQn8JlFLriSY5oJuR8ewXONg/esgKnXvmStfMwsGhuFAioOhQmugBRZAB54P0UAamZYOKR4S06MHBl6jv3JH/SfbgCyltpYp0FNdXQrKa5z8hjnBSTG+amE7PpURHJfEJDcF7JI7gsZxNxzqUTPGT4h7zQPn3+Yh/dkCN9DX0okoLXxUeipOHzBGUZ0wZmxUQXnKVFFF0hRRRcIkUUX8JFFF6IiSy5ERpZcCI8s7RkVUbp+zJiSAQ7AfxqHwe7/OXus/VUFLvcdSPNmR+f/ER7wGtK8acTid9Oi0d/zw9DfpUeU/JbjS9GGQ3UIDMHFEUp/Ex+G/o4+uuRtcgT6B1pY7rvE+0fxu8Sw4ndhSkxU1IS3hgaF7Ab7Q/6/vZ8BAv8HmEDIfySAKqwAAAAASUVORK5CYII=;" vertex="1" parent="1">
          <mxGeometry x="855" y="286" width="42.97" height="44" as="geometry" />
        </mxCell>
        <mxCell id="1cblipu1BqGZto9yZwqj-226" value="" style="shape=flexArrow;endArrow=classic;html=1;endWidth=76;endSize=9.89;width=62;fillColor=#99FFFF;" edge="1" parent="1">
          <mxGeometry width="50" height="50" relative="1" as="geometry">
            <mxPoint x="814.5" y="350" as="sourcePoint" />
            <mxPoint x="815" y="410" as="targetPoint" />
          </mxGeometry>
        </mxCell>
        <mxCell id="1cblipu1BqGZto9yZwqj-235" value="" style="rounded=0;whiteSpace=wrap;html=1;fillColor=none;" vertex="1" parent="1">
          <mxGeometry width="510" height="220" as="geometry" />
        </mxCell>
        <mxCell id="1cblipu1BqGZto9yZwqj-236" value="" style="aspect=fixed;perimeter=ellipsePerimeter;html=1;align=center;shadow=0;dashed=0;fontColor=#4277BB;labelBackgroundColor=#ffffff;fontSize=12;spacingTop=3;image;image=img/lib/ibm/devops/artifact_management.svg;" vertex="1" parent="1">
          <mxGeometry x="40" y="58" width="60" height="60" as="geometry" />
        </mxCell>
        <mxCell id="1cblipu1BqGZto9yZwqj-237" value="Infrastructure:&lt;br&gt;- URL&lt;br&gt;- Path&lt;br&gt;- Branch" style="text;html=1;strokeColor=none;fillColor=none;align=center;verticalAlign=middle;whiteSpace=wrap;rounded=0;" vertex="1" parent="1">
          <mxGeometry x="15" y="138" width="110" height="20" as="geometry" />
        </mxCell>
        <mxCell id="1cblipu1BqGZto9yZwqj-238" value="" style="aspect=fixed;perimeter=ellipsePerimeter;html=1;align=center;shadow=0;dashed=0;fontColor=#4277BB;labelBackgroundColor=#ffffff;fontSize=12;spacingTop=3;image;image=img/lib/ibm/devops/artifact_management.svg;" vertex="1" parent="1">
          <mxGeometry x="165" y="58" width="60" height="60" as="geometry" />
        </mxCell>
        <mxCell id="1cblipu1BqGZto9yZwqj-239" value="Cloudpaks:&lt;br&gt;- URL&lt;br&gt;- Path&lt;br&gt;- Branch" style="text;html=1;strokeColor=none;fillColor=none;align=center;verticalAlign=middle;whiteSpace=wrap;rounded=0;" vertex="1" parent="1">
          <mxGeometry x="140" y="138" width="110" height="20" as="geometry" />
        </mxCell>
        <mxCell id="1cblipu1BqGZto9yZwqj-240" value="" style="aspect=fixed;perimeter=ellipsePerimeter;html=1;align=center;shadow=0;dashed=0;fontColor=#4277BB;labelBackgroundColor=#ffffff;fontSize=12;spacingTop=3;image;image=img/lib/ibm/devops/artifact_management.svg;" vertex="1" parent="1">
          <mxGeometry x="285" y="58" width="60" height="60" as="geometry" />
        </mxCell>
        <mxCell id="1cblipu1BqGZto9yZwqj-241" value="Services&lt;br&gt;- URL&lt;br&gt;- Path&lt;br&gt;- Branch" style="text;html=1;strokeColor=none;fillColor=none;align=center;verticalAlign=middle;whiteSpace=wrap;rounded=0;" vertex="1" parent="1">
          <mxGeometry x="260" y="138" width="110" height="20" as="geometry" />
        </mxCell>
        <mxCell id="1cblipu1BqGZto9yZwqj-243" value="GitOps repos" style="text;html=1;strokeColor=none;fillColor=none;align=center;verticalAlign=middle;whiteSpace=wrap;rounded=0;" vertex="1" parent="1">
          <mxGeometry x="20" y="10" width="40" height="20" as="geometry" />
        </mxCell>
        <mxCell id="1cblipu1BqGZto9yZwqj-250" value="" style="shape=flexArrow;endArrow=classic;html=1;endWidth=76;endSize=9.89;width=62;fillColor=#99FFFF;" edge="1" parent="1">
          <mxGeometry width="50" height="50" relative="1" as="geometry">
            <mxPoint x="258.1" y="220" as="sourcePoint" />
            <mxPoint x="258.5999999999999" y="286" as="targetPoint" />
          </mxGeometry>
        </mxCell>
        <mxCell id="1cblipu1BqGZto9yZwqj-252" value="Apply repos to target clusters using OpenShift GitOps operator (ArgoCD)" style="text;html=1;strokeColor=none;fillColor=none;align=center;verticalAlign=middle;whiteSpace=wrap;rounded=0;" vertex="1" parent="1">
          <mxGeometry x="335" y="306" width="141.4" height="20" as="geometry" />
        </mxCell>
        <mxCell id="1cblipu1BqGZto9yZwqj-254" value="" style="shape=flexArrow;endArrow=classic;html=1;endWidth=76;endSize=9.89;width=62;fillColor=#99FFFF;" edge="1" parent="1">
          <mxGeometry width="50" height="50" relative="1" as="geometry">
            <mxPoint x="258.1" y="350" as="sourcePoint" />
            <mxPoint x="258.6" y="410" as="targetPoint" />
          </mxGeometry>
        </mxCell>
        <mxCell id="1cblipu1BqGZto9yZwqj-255" value="" style="shape=image;verticalLabelPosition=bottom;labelBackgroundColor=#ffffff;verticalAlign=top;aspect=fixed;imageAspect=0;image=data:image/png,iVBORw0KGgoAAAANSUhEUgAAAEQAAABgCAYAAACkLtSSAAAZsUlEQVR4Ae1cCZgcVbW+PQEJm4KCiDzxgQhPAeWJQNz1ocDMdFVnJSEsssgSsocJyfQyGQKIAkHgiY9FUZ88ouEhQRYJs082yD4zvUzPvi/dtfRa1es9fqema6a6pnqmJ5nEwGd9X31VXX3uvef892z33Oom5Bgf5eVQUNMJM99uDJxZ746eW+WWv7i9JXahcrbD+TWuyOfeOCie4XLBJwDAdIzZO3bDIQCV7tiP67yxB6o90RfrmqPv1XvDh3a1Rds/aJf6drVLfTvbpLZaT/hAjSf6dkVT8Lna1sSS9w4Fr363FU46dpwe5ZHq3LEv17bEHq92R1v3dsmcc1COtwsJ2h1M0p5gAnpCmVO9DyZpp5igzb4Y3dctS/UtkeFab2x7pUf+6a5eOPkos3t0uq9xwWkVnvAP672RzXu7YlGPLwa9oQQdiCahP5L/ifR94QR4/TLs7ZJge4vcVOOK3lvZFDnn6HA+zb0CQAECUe2OvLq/OxZqFxIKAFMFQg/aQAbEDjEBh/pitL45ur3GLS1CPzPNIkxvdxXOqH1HW3SwXUyk+8L5a4IegIk+Y78dYoLubIuEqt3RP7znCn56eqU4wt4wEtQ0SP9W2yy/s6dTAvQLeoEC8TSVkjQ9KKXS+B2aQW8kSbtDcdoVjKfbAzHoCMRoVyie7gnFaW84odDo+9F/3t8jQY0ntKeyJXbhli1bZhyhKNPTvKIp/pW65kh944BMUVA90/g5kkhDIpWG3lA81SLGqJuXqIuTaJMvAo3+aNbp9EeV7zy8RFvFGAJG+yNJPMf1jdriHo5BtTs8UNUUmoMhfXqkOsxealzBi2q9stc5KI1j2C8nIZaidCiaSLeJMsXT6Y9C0xRPbIMAdgZj48ZQQWoX4lDrjQy/74pce5iiHHkzTKBqmyP1B3ujWTM3KCVBjKUgTSlFrfAKEp0QBE6CJvWcBKxWMZbOpYWeYRlqPdFohTs465+S0NU0R397qF9OqbOE1yEpCVKK0jSlwMsJ6hVkQzAa+Rg09fmg2dlAvR9U05ad26jnw3pwuT3Q1M9DkxAfAUkHEJoXmlrHiBllTQSO7xqSocoddWHuc+RTPoUeKhvD9+5qj6R6Q9k+I5ZKK5rRE4xRJzfePBo5GVz9PO1440U6+OTd4Nu4CPwb5gG3YQ74bXPpcNkiGHjsZ9D5ylPgbG0fAUYHCmobmlGbGFMctHZC8L6hX0pXucJ/mYI4R0Za2Ri7sMoVCXWK8dEZwjwhkaY0mU5DdzBmqBVNAwJ4a98BX/l84K1m4K2M7jQDv7YI+JIi4B8oBO6BIuh6ZRM4O3ty+h0jUDDK7WqToLoxZDkySfNovW8fnFjpDG1yD8fSarKE10iS4oFRxMBxSuDs7oWuP/0CeDubAcMIEAb4UvMIIAhKBpiBx5eA5+B+aOLkccCgprQHxjtbrz8GFU3hIUwH8hDr8Enq3XDuBx3RHm3SxclJNBMYiMQNNcPZ54eelxwKEIKNAfGJW6m46fa04LDoNCSjMeuKqQKGCkpJEfhsC8Dd2AhNfskQlN5wYpz5fNAeobVeafXhS5tHyypnZJVzMJZlKsk0hXAiZQgGOs+29/5MVfMQn7wNQq+VK6e46XZjQNCUNGCo932/Wg3OXt84QNCnuLjouFylO5CAKlegrqIdPpWHaFMn2bKr9+Q6b6QHB1IdWSieBgSkM2DkNyRwNzWMgoGgiJt+mh8ga8drCbfWDK3vbjY0HQTFyHT2dErStkb/lVOXNo8W2xoC8/d0KjOhAIIhNp6imIUa+I0ooHb0P700y4GimYjP3EXFZ+4GoWxObg1ZX2yoJf7SOdAYShtqCSZv+hwFtbnSGfx1HuJNnQQXUm28kkYrgPAjyRe0i8a5htvjpn4lohhEE8Moo6HLAYiw+nrwVr1tmKOgluA6SNVevGIGW+eN9myZzlVxtTfx9YrGkKXKFXJq845wIg1SMmU4W8hca/VWytswqmgEzfc+ByB8SSH0P3G/on04hv70CnKWc0V+az0hWu0MP1R5KHTx1NVA16LSE/pMtUcaqGgKijtbQkm1rtEXSSq+YyhqHFmQ0ba/v5rlP6YETE5AimBow005NcTJRemAbiGI0eb9xmC8xiMd0Ik39Y/Vh/hLq90SvN8YgAPdY/4D1RFDbXfIyJnizEWg483fUb6UAf5BjBoM5UsY4NehtuTIQbTaowKyppjyq4oov6oY+NVFlH+gGHz2RdA4HBqnHaq29ITGQjDmSI39EkX+MZmcOgK6Fu+5+EurXBG6rTEATQNjK1qfhBqShjZxfF6AztRzqJH2/3I15e4vBn7drVR4aAkVHD+j3Io5lFuRAWciYErMlFthptySIso/uJiKZXen+bWLsT/qWzMfPDvqcgLSHshO6bH8iPxPLyANAXAPy6MOi5cxwqRpi37xxknQvPdDOlxyM/D2O0H6sJomhvtpUuQhIfgg5j5IxV+Vprn7MD1njU1qPZPm7jeDUH4PlfZvp4mhPpoUOZoY7KHRXe+n+fW3pn1rFkLz7p2GptMqjvGJmowF620NRwEQjwaQkQpYCpr5bA1xdvTCQPlSEMruhsRQH2A6P+4EgNDrL1NuxVw0p2xQ1jGUW8aC+N8OSIWChm1TIZGKT5ZQbvlscLmax2kKTpI20nQF4nB0APGNDSTGU0qE8WgB4WRofft1ypUshsRgD1AARSCO4+CNrVup0+kEPBCgtCyB+KxDEX7Mp5iBX4X+ZjEk/UOjYHR1dcGW116jbrd79Fm8y0v5VfOg+5lyaBoMZIGCJYejCgg6VURYazIIiJxMg1cDSGM4DYO2u2h46x9RLxTmEYCfXHcdPefcc+Giiy+G9vb2UaHkht2UW8qOOFx0qKUMcEvNIO2rQ8wUunA4DAsXLYKzzj4brpk1K6t94HePp4fX3TpOS8ZpyHSbjAoIemsVeVzQYTWsVRgzmcYoBf8yC43urhwVGgE59fTT4eTTTlOur27erKyKM2ZEuSVm4FdnchUE5L4ioOnUaPvBwUG44EtfglNOPRXOOPNM2Lt37+h38c5m6l82G1wHDmVpSJvOqbZysek3GQxb+3uk0aRnSE4pVbHOwNiSvDFCwb+UBWlv3SjTCMj60lJ69axZdN78+XR4eHj0OzQpbsWccYCk5egojSzLULZhA3zzqqvgjjvvzGqf9A1Q/1IGXAcOZAHSEYxnVfGcg/L0hd1KV/ir1W5MbAKwwxsa3XnDxCxFKfSHxxIzBZCV82lk+99HBUJNkCQJcKYFUcx6ngoFRhyrqiHrRzQkGc52ppFIBAYGBiAQCGjaA6DJ+VbOA/fBhixAukPx0YlDjf6wY4T/anc0qMsqpv6xpqZzZo0nVlvljjZWuULBvvDYdgD6kHAiTbHOqSRFYgK6n30oHXh+I6WpMbXPmIdGmBH/En7rFcott2Cylok0ZsDcI7j5Oa1ZjWun9JdMgvDz5TCw4T5wtXWNAqLPVHGxV+sJUtxXrmuN/nHqCBi0qAE4AXffK5pCL7dwY9UpIbO404Zez9591L/6Rhqte9dYEMXdAiR9AyA8tAT4lbp1zhpGCacx98HRKGUEqLS3TgGz/f9eGAUDJ6VVt5ZRtieaIz01XjgLt1kNxDv8R5Wu4A0fdoxtOfjkkfVMMK4pDg2FoOPlpym/agFE3n8daCoJasRQBYt3t4KStS630LGQqwJjBm45C7z9DkzidKCMRB5M1vi1i2Fg4zLa1M9lAaLVYDQXXP5XOUOPHb7UE7QsByio90a7tAWiSBILRGlo0USbJl6mnS9tSvtXzAXhsRU0UvFXKjfsTksfVNHAS48poZZbwQK/XgVBfzUDvwL9SSEEfl1Go9v/TuWmD9ORmr8pCZn/3kLofXIddQ6KWWB4Bdyzyd7d29MphWpcsYsmEOvIvqpwRla5hsbMBtc06Fx5OaFsDagLLNx46nj1OSqsYdPcskLKLS1Kc0sKKb/CjIs8XPRlZ6jahZ1yj8VmBvgVZuCWFAK3pEg58fPgI3fTpp7hLDBw3MyW52g1r0tM0Bp35N03m+H0I5N6gtZvHZLO29kmNWtnQoinIIVlRN32Q2vl68BbM1V2rKbjOdGCbhwoqDmZdmr7UjP0Pb8u3cSPhXsEo0XnO9Bc6r3hVLUreudR3cVDs6lyyzbX4FhOgktsKZkGKZFSNq1VLWmp2gqHXSAyBAcBKobel8upsvWZiW5YOhyUxqIfguEelqHSFfFiHXiC+Z2er3Cvo9oTbUcPjoPjifVVn5zCXf1RVW6te5vy9hxbDapZ5BTcuGYiWIuga/OmUUBcXBR6wonRDBp56RITsN0bkas8oW9Pj8R59FLhiVy+uz0a178Lgu+LuXDjGkPgjm2Ud8w2LCEKDy+i4i9uy2FCxSBuussgAjEglBYBboOq+zNduhoqArK/W0pVO8OOPMSYXpJKd2TloT5Z0voTZKgnFFdAwU1sLhcgT90DCX8vDf7eToVHF4NQPg+Eh28E8dn7qezaTSM7txqCJawvhLZtW9JOThrnRJEPdPhVrnAtvpkwvdLm0RtuAFW6I39s6JdBDwq+AdR+YBdwObYaWu3zYc+uHbicgUSvl8oNdVRu2QdpOQI854e6ny8z1qz1hdC1uzLZrdtkx4lo9sWgxh1pqWoIfCMP9o8OSU0nnFHTHH0NQUGmss42L3CG2xAMOFdeB9d+46v0+RdeAJ7nFWBkWaZVVVVw9VXfhNdu/rZhWEYN6e3tSWjHwcK31yej3/BUHxC/fnQknUKvb+2DU6o90qsNA7GEdpui38cDt3GR4UxjBf6+WV+GE048Ec753Dlw2eWXp79w/vn0pJkz4QtnfSpnG2F9IR2I0aQKCGqme0imVW6pdZsreM0U2D66pPWtcHa1J7JpT6cU6xQToGxXhGTgHr05p3CNK34C117yeTjhpJlw4kknwYknzYQLPnsGvHXbdwA3xY22LRCQ/gTFrQbAjPlAj5SsbY6+WdPI/cfRlfAwesfdsermqGV7S7TXOYh+JQH8o7cYCqYK277meniq+Aoo/Mp56aXfvpjuuPdHE9IL6wppX5IC1ne3e6P4Ykz59m448zDYPXZNtrfL51e5In/Z0RLy+R5ebOgLVEDwqrwiYWdzaoWWlrea6Y7elFTlDu+q9IS+deykmoaRKprCP/SXz+ezBTI2hXxpcIP8nc70fe+54Ph6WTcfvPjVN13K21gxX2HzoRPtLPhXz2PyGf+4oAFCTL2rF5wcKFlwgbBm4Va+dKLU/TC0ZT1D+ZVzh7mVlmt89y84DRYsOD7eXjZCP7B67oXcmhuXCg8uelEoWdgmlCwEYZ1x6p6PNhjS4F7xynmAoPCr523hVs61Di6ffbURP//0Z/zymz85+MDcq7i1C5cIq298lF+zqERYN9ejDaHae0OBcy72MtpkY/b5l8+7yb9qbrmwavYSfjkzK1y64Ox/uvD5MiDaLXeIjpF9F8Gm7OX6DwuIDFCCtfiRfMc+LukCVvO1Y4AwccHGDOQDiEaTUoKNjWCbkWfFdx6XgubL1LCV/ZoKCG8187yNGVSEc8yOCQ/NDxqBI9gYBMGT+S4i2tm2UbpS8/x8xz4u6fzl7Oc1gDSrgIh2to+zMQdGBdX4DrGMjQo2xooaIdgYQbBbdiGdYGPosLX4+uNS0HyZGriHOUUFRLSxFaOAONgO3mquNwTEwUYEG3N/BhAfb2VexwwVNYcvtxy7Kli+Qk6VDgEZEc7yHG9l+jOz3S7Y2VyApANlzF3YhrOafbzV/DRvNadFOxsPbrQcPyvaqQKh0quA8HbmLt7KdCAgnJVpm0BD0mKZ5Q4B32AsZYZ5O7OatzJJwcbGgrbjNOdQhc3nKjrYBAonOIq/J9jYgxkN8WRpiI3ZhxqB34kONiKWsT9VALGah3gbu4C3MhKenIO5Kp8xj1saxYfYWRQSxPLZ/85bzZUouGhj3+es5loFADsLKKi4YSTNFx1sVHSYb1MAsjGDw6XsdwQbE+ZsTExwsN85boU1YgzXFuHSwrOH15m/Ltgt94plbLtgY9KinekW1i34lGBj3sEFGm9ln+Zt5goEhLeisObzVEAEBxvlbcw83sok0AkH119/kVBuaRZsTFJ0sG0Bh6Uk4Jh9pa+86HNwz5UnGvFx3DzDBRdvN8/ny9jHhTLL84KV/U2gjHlELJ99xZC1+DLByvaKZRbwlZqLeCv7XgaQXUMlt54q2pgPFY3ZYAkL1uLLRiKSOYwm4y8tuli0sw7Rzj4dcLD/IzrYTaKDvRPD+nEjvBEjuNrFWYPyBZ9QchAb+33Bal4rOixvCHa2B7VDtDJ7guULPs1bzdszJqO8t8FlzES0s2nsQyyz/FUxNTvrF+zMNt5uvgPNJ7C++ELsXzmP59WuFiCcccFafItgMy/jreaVgpVZh2fAxswLPzHns7ydvUGwMUpKzpUxv8C2IfsNlwg2JoEgCVbGhqYnllnmBGzsg1yp2c7bzGs4a/Fy3lp8Z7j8us9qx/tI3cOWBTPER+Z+USizMILdYhMd7JuCjZUEG5tC58o/WKj8DKz5QfZ00ca8hKCIdiYuOth6wWF5QnCwi0J29hLUiI+U4LmY5dcX3SCWsRuFMsuzvJ15mbezL/KlTFnAzlw3UM6cpW3Hlxd+Uthg/i5qRcDO/ka0W/43UMb+JlBuecRvM9+MxSct/b/u/4XAvxD4yCCAf46Eb/HheSR/lIRtsTA82RuBSHdChvZIx8N+MIGbbMy8JgPfz8J/XFhKCHmIELIxc/9fhJBT8+phhGgmIeR72LagoODnBQUFpYQQo9/n41/pzCGEPEgIeZwQgm8QriCE/IQQMpV3xdD5/ogQspIQ8gQh5FeEkDJCyEJCyHlT4DuL9DpCyC5CCEcIiRFC0pkT7/HZTkLId7NaGH+4wmQyVZtMJr/JZIqZTCZqMplSJpOpPjNzaqu7CCEuQgi+cZwkhNDMGSeE8ISQHXmOh1X42gyP2BYyJ/IfJoQ0ZyY17y2M0wgh5Rnh1c5yXSVCCNY5jXIEfLbYZDIlTCYTGJwiIQQ1B/dmX9Uwnmss9fl9hBCjv/FSxssIrdJOdMUM+TPqbEx0fZgQIusYRHR9mRPvtQMhLYKitVG8v91kMsk6IFA7cLbdBQUF92aAfNkA/AQhpJcQMmjwHWoomrB2hpXxCCE4QVrekNdhQkg/IUSrLUiDWvi7iYDA79AEcEBtp/szdv1VQshXCCE3EULadTQ4oDbJOtNkMvXpwHASQhYRQi4nhGB2is4ObTql6+tNQsgPCSFfIoRckqFBNdfy5CeEaP+6C/dmkActTSch5OYMz+iv0Ke8pqNBwHBiDA/0xDgraqfI6B8yjOsbIG2FbvbsGqJnNWCgVrxNCNFnmdiHdtZwxtBpGx2nEELezfgUlT8UTj1wv0Z9jkJW5jBjpMcX8vTjGr5SgQiqneK1YRKPfCkhBGdBbYNqjkJ+wmQyBTWA9GS0QmVevWI0QRDU9ocIIZ9UvzS44njdGno0D4w86E/QAav9dBBCUJtzHdhmm4Ye291iRFyiI1piRKR5hnaL/+SiMoLX8wkh12jAQGeK0QTNQ3/gb/K1gkz2ByjoM/SCYCTEd9m1PGzW+TP9uPi5WNfmWaM2v9QRXWHUk+7Z07o2V82YMeNWLSAFBQW/1bVRP76ka6s+n+iKuYlWeLT/H+ieIU+THV/QtcEoNy5SPqojmjVZr4QQnGUtg7NmzJhxhw6QXAy+qGubz7/B/F7XZhUhBAvPWh6ez4Pvy3RtXjECBOO7tuMnJ+kYbRcdnbbNlTNmzLhJB8imHP2gE9a2RVWf6MDMeI+uDWa0GGG0/aCJTvYnKphaaNugUx63RPiajmiAEDLRn5EUEUIEXRvUkJt1gDyVQ8ov6nzI0CTj3W6QH1kzfWudOzpbDLe5DnQF+hD9/VzEf9MIiA4PZwSdHWav6oEhCnORFg2tiva3ZsyYcYsOkGfUhgZXfV6A483VjYevaS/LJGnqOOrVlukT1zrafAbzFDQnbREaNQyd6Qe6iajRJXlZbGIqi2FSHRCvAUIIJlVbCSGYNLkJIREdjUo/VUBQWG3uo47XRAh5nRDyFiGk1SBZVMdTAUHz/bOOJ8w12ggh7xBC/koIaSSE4HJBbYtX1MpJ34vHl9r0KqXtZKJ7BERvMrjSnOi4IZNeT9Rvru/WaTrG8HtQlyzmaofPEQzUxkkPzC9Qtep0aqjvXF1vaJ+j9/6BzmQmy2eQIQQFV8/6dZK2b9RKXGVrnz2gk+bCTHaNq1otnfYex0CzwcRQux7SdZX9ET0ulvrNhJAthJCujEPDhRxmghimfkwIQceIfged6wuZBAyz1f83mUySyWTaq/MH2aNkf8LxkEnsry+TXiMIWBLAxAnTAAypWuGwVqI/0N9hCQA1E80bnSxOHgYJNB986QbNZFxU0Xc00Wd0SMgwnvrCEGoUOlr9AEg72QxgG8w/9DkICoWLNwyp2qX+n3SAYOSZ6MDyAvaBAEy0LJioj2P6HVa0cOWMzu/GSUbGxeFuDSAYBdFEP1YH1kZUE0Az+c8JpEPz1UY3rM+gdn6sDnRuKiB43UcIwR8BoVmiueGJq1N8DQJ9gEqL2oFFoo/dgUUgrIqpguIVIwk6bcwxsHaBTl1fCcOaqb6+8rEBB6toWlNQwcFaibZeoj7H/OGj/SZRHlOHCRKaBIZHVXD9NZrJVfQRKY/uP5okF2T2TnDrA7cicG2CAOFSAlPvuzPh/aMp3WFyjZU1zF+wuIyrUlyBI1CYQ+jznMMcYuJm/wBt6s7BB4Ge4QAAAABJRU5ErkJggg==;" vertex="1" parent="1">
          <mxGeometry x="293.75" y="286" width="31.17" height="44" as="geometry" />
        </mxCell>
        <mxCell id="1cblipu1BqGZto9yZwqj-256" value="" style="shape=image;verticalLabelPosition=bottom;labelBackgroundColor=#ffffff;verticalAlign=top;aspect=fixed;imageAspect=0;image=data:image/png,iVBORw0KGgoAAAANSUhEUgAAAFAAAABUCAYAAAAVgLC7AAARU0lEQVR4Ae2cC3AcxZmAF+MEQnIBHJ5G3unumRVggq3dnp3/717LFsnhhIPchSTU5SqBXI6kCNyR43jk7uCOcEUlqaQK7lJHyFHhZUyg8BtLsjE5YgjGD+3MroWxsbySMD5eBuwADo5lWztX/2pHjNYraaVdyYJoq7q6p5//fPt39z893ROJTP4mCUwSiEQizVKekEVk7YjgIX7JBbgmjXib6+AdaVB3eYh3tgHe7gFc5yl1aVYldRYgti6V+rM/aYBZG1Me4gMewLYMwhttAH9IAxxOA+TbAPxBXG8aYL/r4Jse4o6sgsVpGy9aFLns2I88TD8SOSbjOHYWnZtdwB0ugJ8eHNRgAAfEU3kP0HcBdmUQb88qpbfOnPnxjxzMTY5Tn1XqGbdPy4bSsAGABtHCsnkIpguw30Nsa9PJho8ERBqrXIBfuI5zYCQwqsnbp5XQm0Vc+LxS539oQWYRv+MB7q8GRrVlXcAeF/H6DxXETCo1PYt4vwvQWy2AWpR3AX0PcWk7QN2EB9mu9Wke4Ku1uPFa15FVeCht22dPWIhppRwXcGe1M2utwYXr8xBe8ZT64oSDSObJFqXKzo7hG5gIYRegxwOQEwaiBzDLBeyuFg7ZhX02HR52AXe7gB0u4hYX4EUX1GtpwENFm6/qP8oFeCOjkvOOOsQXHeczWcBXqoGXRjiUQdybVWqR6+iLB3tEIwM5jdiU1fpXGcS3CGg17bqgcq6UHyOIZOQvmjnz4/fFL5j9SLzpX/zIbVPGHO5tkcgUD2DJMI9eZbWlYKsh7nMd525PO5/bCPDpkQhcfH5OpQF+5gHuJe0dKUwqk0FY92hD48UL4/PuXtAwb9uDs+cdfnD2vEMLG+ZdOBJ5RpU3i/iD0UwYaYCeDOL/rlfqrFE1XFJovVLTXFCPUL2VQNwE4G9wIP+E1IcXNjT2PtQwz39g9tyCe7ih0V+W0P4qqZ9fZVnHlTRVu8tsQ9NJNC5VInA4jwvQ7Sr1Zf+y2j78U1fcAnChB/BiuL0g7BWhrZa6d1E8lV/Y0Ji/PwRtcVz7KxLKby66Fqn81qT619oRC9XkNzVNJQ0aofbls0q9sHGMjdl18dR0D2BDGqA3DTQZwdsZpZ7a4OB3FsbntpGmPTh7rr+godF/LJ7yHw9BC+CR3yL1H1cl9NM0NoZuvTbBzQAXuEMvOR0xHrmIzc+eP+fk2kgwdC1blZqWRbwzo9TfuUqeE6zO/Pr8OScvije2URddWQZcq9R+q1S7m+3UXa126sI1s/RpQ7c0ilT6R1wHHwu6xnA+TTAugkfj1Ciaq3mR5rijWqTaH2hbi1T5Zql2t9j62dV26spV1sgmsxELSAaoi5WbDx7CrnbH4SNuaAwLrJJ4datUB1dJtbE1qb+9RqpzFin1iTFssq9qPxKZkkH8daVjXxrwoOeoS8dcsAobWNvEjs9BfOaLKnnjC8p+cf14QAvLVph5EV8ertsG6R6oe8hWDNdxNMKvfN75TJeWV+e03LBDy7c6tMx3aOl36cS3x1WeTY5jpyvsvrSU1a71Z8dVwGJjNE5vT8Wnd2uY35lK/E+nTu7NadvfruUA1z1HtoyrfC7gzyvpvpTHA/XQuApXbKxbx43ulL2wS9u7tmt5gDStFFxwndNyj3/ZOL0/IcM3oyoznF3A/RsQ2dEAuK1Rntml5e4A0lD+Di39nLYvHxc508mkyCIeYd8F413YdwGyY2KAVninHVpeMxS4cFpOyxcqrLa6bFlHX1zpA7sHcF91rVVXOtc0qy6n7bfDoAYLd2rZuzWZPKO6FisonXbUP1Qy/hHkjQDjO7uVyE/PxV1KbhwMWjg+p6XfqZK6pIraX6YRfxTupoOFM4h+MPsukKnowvjcKx6ZnTqv9hINXePOlH1zLnXkzBuGF4S7lbystDayeUvjqrp2EX85GLRwvAfQs9RuTD0Sn/f4woZ5eXp4XxBv+vOqGh9F4W2pBHaVMV0CaGG/K2VfFzRxj5QnrEzgLa1S3xHE1cR3ARaEQZWE808nMd8idf7Rhjm9Cxrm5mnFg9wjDY35x2Y3fqEmQoygElfKE3Pafj8MqlyYzJzNkHxgRUJdtSKhVi5LqPeWJdBfIdWyETQ3fFbXwYfD0IrjYf5JW/U+1NCYv6+4thYsFz0W14W1NXpYb7Hh68O3UPscHVqSLVjWDiRw7Sh7WxJwmIAtjaO/OOQel6q5phK5iA8WX/i8mobkPWnQX324ofH9YFHyoeL62tJ4maUiW99WU2EqrKwzJdsDgIXJQts9Htg9v7WT+eaEk18Sx3wYWji8rAFrq4EZxO9nNfxVWPYFDXNfoyXw5YUFyA9Wc4OlouaE6m2x9b5VUt0aLjde4c6U7W7X8nBOy9+/lEr+5DUpT1iSwM4wqHLhxxPor3PUvWMuZ7PUXghWocv2LUrqt55I6rtXJ/ErT8jGM8dckEEa6Nby2l0a5r/U1HASZaHVmGUJ9W45aC0S/ads8J9z+l5OuQp+Mki1tYtutfXyvuVvlW+Rat9qmdq6Kqm/O6YvY6oQf6XEBPUWArgkjj6Nfasl+OuL0IIxvm8RGK+uoqnKirbY+ketUm1pkXhtc3zO7OAda2Wlxz/XcqnvXp5Af42N/jNJ8DeWgPsAIB6mV61jImHuIuu4V5qgrlPZV+S03dE1xz4qE8RIb86V8oR1Dr4ZQBrKpy3EHuK5I21jyPxb1XnTXkrJ73Wl7DU7tHwtWCbqTMnf+cW3+0NWcJQT6VVEG8DBocAFaRmAPbR4XJXItJrS0SRP2amSuiNl35XT8h1a/gnMgsDPpezX2/Ws2r+9qkr6Iwv37fQffvcC2bebEVdXvZq0UzvX51Jya4eW+wNtC6CF/Q4te3Mp+y+PFHnixNA2Yw9xX6BhQ/keFjasz69a+m6d+O5Q4MIQO7XcRmNj1Y2OQQWkSRmlFg8FLZzmArxetfbRfXRJeWKHlu+FQQ0WJtA0qYzB/VddpeeoL7gAfwxDGirsOs6vqm6UKqB/YYeWzw4GrTS+U9veRNPC9VKeU2nXJai0lknb52oCkCrJaXl9pd2YgHal7HsnwmtMkn1rU9OnPAczQ2lbaZrnqNruhaFu3KntV0u1bbDrDi0Pd2v7a8E/+ND8WZ+krRTLJfz7CqmWr5w1d1x2KNC2uTSo9ZW+gihq3/vuWJwp2ZGybxoMWLn4rpS9b7PjXNqcwB8+LlXX0jjuD1Y9lsXVniW2igeAx8LfgHhuBgsb3Ud0GioD0Lq2qWlqzWWip46ctveUgxWO26JkfhPY+d/YyV7aZ1e6vhY8wC+Jq3dXxvHaWm+roB2raUddMco9i294KmHVHF5QYU4l/r6zZHmcxsadc2xalPRXS6d36RBrawG8RXH0V/U9vOc9wJ20OT1ooxqfzuFlEL22EW65C8ZAD/Fvq2m/orJd2n6GnkR2pOx9OW0/3a3tW2ijzrIGdefiOPYGkEr9ZQnwWyX4a8s8vNMuL9o3mEX8Rvvcke3gymhttGv4uge4xEPsqeSNYQAs8KmMB7CclrkqglBNpo458dkvzUn+/P/UeQP2+a1tajp+RUJtD4MjTVsaB//pZGXHWelG6KV9RqkXXIAbaBwrPf9L41MWGmJpxH/yEDP09m8kk0QALex7iJurYVKzsrRoujyh3JUJ8H9jg/9scvhnzvCNBGECSVAKrw4QelzAPS7gGy7AHtpAXnylUPUZY2rPBcy12/ZR2fxUFvyWuckZ7eronswM/ojhfA/w3Ym26bMAlb574ClIV9u1hgNQTboH+PxmNbamVFkNqzSSzIkM4nOjOXxTDZjhypI8GcSX147HPphKYQ2Wj15qZ0DdOp6n1IcCSJs9aT0wBxeN6DTUYPc3bvHtjvM5D/FlOrMx1A2OVRq16zn4ZgbxonG76Vo3RAewM4j/nAF8YzS22mjg9tl3uLfQC47ia9WasiyABLjPA3ydThCNBsxwZUjjXIDdLqgFH4qxbjSEyXzYDPDNtOM87SEepO8ZDAdmqPSC3Yh4KA3wTBrg8ueTSVGTFeXR3Nx4l9kIDbEMwA0uqDV0uLoNYHca4H06P0yzJnXFoNvTREAnBCid8lF+D9Qaz3Fuomfh8ZZ9QrVHj2l0cJvOtbnF72elHefKNMB1bQA3ugD/uMlxrix8VwsRCvmkPIUOPU6oG5kUZpLAJIFJApMEJglMEpgkMEngT5vAzFNnfkoIESW/DIljGWPHW5Z1XODK5DmmNE8ob/Ct00IeGYkUvhwUqmMqlY1EIkG+/iTO+en1dXVnzSz5xGdTJDJVRvq+QNSfORKJFPMFX90otBf54CscU0plLLZbOKEUyFvqy2H2Qh5Tz8R/WFFxyDK4bxriEF2HhbKi/JtmIY33mkafswz+tmWIa4J8Qoh6YfDDZvSDPEFek7FvUT5+Gj+9UA8T28N/VIzzf6O8whBfCeojmCbjK+qF5ZMzmdgroqL/9JMwxB2mwY84n2wy8wlex51Ce5wbliEOMMYKx3BjhnGxxYQfCztu+nwGnz99+vQTLMa7gzSSMwjHhHg0JNeA4LEWE/cX4bxjGjxtGmJf303yBZHi2TErGr28mOc9YfCdpsFfNhk/QMAtJv6T8omzRL1p8Lxp8AMm47vCzorywrm0foAG740x9oNAkphhEsB8COAUk/EFwuALzzWMM03TPM2K8q8V/9iCdgmD30HpQR2BbzH+pJghknRN4CxDHORncoOuY9HoJaYhnrOi1kwrap0XuNNPP/2TdA9mnWlRGpU3DZ6LGbFzKU99XX35ry2ZjH2xCGtv/fT6U6gRMV1ETSbeo/jYDD6X4voBMvFTuqafdYZ1qmnwHmHwP1iWdWoI4NpiliO8EECf6q8vakopQOqGMSbcs5k14IxKuMLRArSYeDJcT7nwtGnTPm0ZYku5tAFxFhM/LmhNlF8bTrAMfnNR426h+ACgMNid/fmk/JhZ6MZ8H41TRYC9wuDd3OA3mAa/sX4Gb+zPH+rClsFfNQ3+fozxNkovBUhjlsnET01DeLEopw+CHXGKkgBaBn+4mEZaWdDM4TTQYmJNWKZy4YoBUjexDHFIRMWccEXWDD6/b0ziv6D4ACCptTD4YmGwpRYrQPAtg2+LRCJTA4BF8AUNMw1+e7jeDzRQ/NY0xCrKK5j4YXEMDHfhQjHBxK0WF4dMxrcLQ/xFU2glpgCQiYMmE+8McAY/HIyBZbswEz0mE7ssZr5iMVZWwysGKAx+b2GgZ2zA5zFNxr5MmmlFGY1vYYA05gWuJ2aIVtM0Z1CeEMAOM8q+Rc4yjAG7ssIAGWNnmAbronbqGV9RMgb2cyftjjHxNyYX60zGFwUQixrYbM4wPzvAGeK5oQBaTGwSQticc+e8uroBOy6CRisGSN2MtMBi7O6gcAFGVPyS4mOMXUXXgQbGGL+HBnVyp5aYO/0AGf9duK5wOAywr17+pZDGkgZ+NZw/HCbgliH20I1T/FBjYClAdkZxFo5GL6npGMg5P7swaxr8QD0Td5qGcVHRPNhvMdFjnWUVPiEcABRR9l/hmwqH+wHS7MXYVTEmvtfveN9kVAqwKdI0lUyRIsQwwGNEVHye7LGgDZqoTMbftAwjMWEAkiBmlF9hGvz3IU2gce1t6sb9whfNmAoAHg7XE4Qto0/DQwCfCuoumA+M7wh34bq6uk+YTDwlGH+G/lTTMC+IMfNBi3GaAPrNmOIkEqoqEhGMrynRwJ6wGVOJBp588sknVjQLF1ueQmNVzOA3mQb/b8sQ14s6QZ9SLwhKeRhj58Si7PuBWTNA4uIFY+wkM8qvLesM8wLKRsZqoR7DCBvMkXMMU1O8WVfXv+GR6otFxSVWVPyYZuR6xv46bHzTDG8xdsSpePrj2ams8EUOy7I+TfKQT+0bhsHrQ4pR7j6KcccJQ3xjiPTJpEkCR4nA/wPTeTfJ/W3hywAAAABJRU5ErkJggg==;" vertex="1" parent="1">
          <mxGeometry x="100" y="410" width="80" height="84" as="geometry" />
        </mxCell>
        <mxCell id="1cblipu1BqGZto9yZwqj-257" value="" style="shape=image;verticalLabelPosition=bottom;labelBackgroundColor=#ffffff;verticalAlign=top;aspect=fixed;imageAspect=0;image=data:image/png,iVBORw0KGgoAAAANSUhEUgAAAFAAAABUCAYAAAAVgLC7AAARU0lEQVR4Ae2cC3AcxZmAF+MEQnIBHJ5G3unumRVggq3dnp3/717LFsnhhIPchSTU5SqBXI6kCNyR43jk7uCOcEUlqaQK7lJHyFHhZUyg8BtLsjE5YgjGD+3MroWxsbySMD5eBuwADo5lWztX/2pHjNYraaVdyYJoq7q6p5//fPt39z893ROJTP4mCUwSiEQizVKekEVk7YjgIX7JBbgmjXib6+AdaVB3eYh3tgHe7gFc5yl1aVYldRYgti6V+rM/aYBZG1Me4gMewLYMwhttAH9IAxxOA+TbAPxBXG8aYL/r4Jse4o6sgsVpGy9aFLns2I88TD8SOSbjOHYWnZtdwB0ugJ8eHNRgAAfEU3kP0HcBdmUQb88qpbfOnPnxjxzMTY5Tn1XqGbdPy4bSsAGABtHCsnkIpguw30Nsa9PJho8ERBqrXIBfuI5zYCQwqsnbp5XQm0Vc+LxS539oQWYRv+MB7q8GRrVlXcAeF/H6DxXETCo1PYt4vwvQWy2AWpR3AX0PcWk7QN2EB9mu9Wke4Ku1uPFa15FVeCht22dPWIhppRwXcGe1M2utwYXr8xBe8ZT64oSDSObJFqXKzo7hG5gIYRegxwOQEwaiBzDLBeyuFg7ZhX02HR52AXe7gB0u4hYX4EUX1GtpwENFm6/qP8oFeCOjkvOOOsQXHeczWcBXqoGXRjiUQdybVWqR6+iLB3tEIwM5jdiU1fpXGcS3CGg17bqgcq6UHyOIZOQvmjnz4/fFL5j9SLzpX/zIbVPGHO5tkcgUD2DJMI9eZbWlYKsh7nMd525PO5/bCPDpkQhcfH5OpQF+5gHuJe0dKUwqk0FY92hD48UL4/PuXtAwb9uDs+cdfnD2vEMLG+ZdOBJ5RpU3i/iD0UwYaYCeDOL/rlfqrFE1XFJovVLTXFCPUL2VQNwE4G9wIP+E1IcXNjT2PtQwz39g9tyCe7ih0V+W0P4qqZ9fZVnHlTRVu8tsQ9NJNC5VInA4jwvQ7Sr1Zf+y2j78U1fcAnChB/BiuL0g7BWhrZa6d1E8lV/Y0Ji/PwRtcVz7KxLKby66Fqn81qT619oRC9XkNzVNJQ0aofbls0q9sHGMjdl18dR0D2BDGqA3DTQZwdsZpZ7a4OB3FsbntpGmPTh7rr+godF/LJ7yHw9BC+CR3yL1H1cl9NM0NoZuvTbBzQAXuEMvOR0xHrmIzc+eP+fk2kgwdC1blZqWRbwzo9TfuUqeE6zO/Pr8OScvije2URddWQZcq9R+q1S7m+3UXa126sI1s/RpQ7c0ilT6R1wHHwu6xnA+TTAugkfj1Ciaq3mR5rijWqTaH2hbi1T5Zql2t9j62dV26spV1sgmsxELSAaoi5WbDx7CrnbH4SNuaAwLrJJ4datUB1dJtbE1qb+9RqpzFin1iTFssq9qPxKZkkH8daVjXxrwoOeoS8dcsAobWNvEjs9BfOaLKnnjC8p+cf14QAvLVph5EV8ertsG6R6oe8hWDNdxNMKvfN75TJeWV+e03LBDy7c6tMx3aOl36cS3x1WeTY5jpyvsvrSU1a71Z8dVwGJjNE5vT8Wnd2uY35lK/E+nTu7NadvfruUA1z1HtoyrfC7gzyvpvpTHA/XQuApXbKxbx43ulL2wS9u7tmt5gDStFFxwndNyj3/ZOL0/IcM3oyoznF3A/RsQ2dEAuK1Rntml5e4A0lD+Di39nLYvHxc508mkyCIeYd8F413YdwGyY2KAVninHVpeMxS4cFpOyxcqrLa6bFlHX1zpA7sHcF91rVVXOtc0qy6n7bfDoAYLd2rZuzWZPKO6FisonXbUP1Qy/hHkjQDjO7uVyE/PxV1KbhwMWjg+p6XfqZK6pIraX6YRfxTupoOFM4h+MPsukKnowvjcKx6ZnTqv9hINXePOlH1zLnXkzBuGF4S7lbystDayeUvjqrp2EX85GLRwvAfQs9RuTD0Sn/f4woZ5eXp4XxBv+vOqGh9F4W2pBHaVMV0CaGG/K2VfFzRxj5QnrEzgLa1S3xHE1cR3ARaEQZWE808nMd8idf7Rhjm9Cxrm5mnFg9wjDY35x2Y3fqEmQoygElfKE3Pafj8MqlyYzJzNkHxgRUJdtSKhVi5LqPeWJdBfIdWyETQ3fFbXwYfD0IrjYf5JW/U+1NCYv6+4thYsFz0W14W1NXpYb7Hh68O3UPscHVqSLVjWDiRw7Sh7WxJwmIAtjaO/OOQel6q5phK5iA8WX/i8mobkPWnQX324ofH9YFHyoeL62tJ4maUiW99WU2EqrKwzJdsDgIXJQts9Htg9v7WT+eaEk18Sx3wYWji8rAFrq4EZxO9nNfxVWPYFDXNfoyXw5YUFyA9Wc4OlouaE6m2x9b5VUt0aLjde4c6U7W7X8nBOy9+/lEr+5DUpT1iSwM4wqHLhxxPor3PUvWMuZ7PUXghWocv2LUrqt55I6rtXJ/ErT8jGM8dckEEa6Nby2l0a5r/U1HASZaHVmGUJ9W45aC0S/ads8J9z+l5OuQp+Mki1tYtutfXyvuVvlW+Rat9qmdq6Kqm/O6YvY6oQf6XEBPUWArgkjj6Nfasl+OuL0IIxvm8RGK+uoqnKirbY+ketUm1pkXhtc3zO7OAda2Wlxz/XcqnvXp5Af42N/jNJ8DeWgPsAIB6mV61jImHuIuu4V5qgrlPZV+S03dE1xz4qE8RIb86V8oR1Dr4ZQBrKpy3EHuK5I21jyPxb1XnTXkrJ73Wl7DU7tHwtWCbqTMnf+cW3+0NWcJQT6VVEG8DBocAFaRmAPbR4XJXItJrS0SRP2amSuiNl35XT8h1a/gnMgsDPpezX2/Ws2r+9qkr6Iwv37fQffvcC2bebEVdXvZq0UzvX51Jya4eW+wNtC6CF/Q4te3Mp+y+PFHnixNA2Yw9xX6BhQ/keFjasz69a+m6d+O5Q4MIQO7XcRmNj1Y2OQQWkSRmlFg8FLZzmArxetfbRfXRJeWKHlu+FQQ0WJtA0qYzB/VddpeeoL7gAfwxDGirsOs6vqm6UKqB/YYeWzw4GrTS+U9veRNPC9VKeU2nXJai0lknb52oCkCrJaXl9pd2YgHal7HsnwmtMkn1rU9OnPAczQ2lbaZrnqNruhaFu3KntV0u1bbDrDi0Pd2v7a8E/+ND8WZ+krRTLJfz7CqmWr5w1d1x2KNC2uTSo9ZW+gihq3/vuWJwp2ZGybxoMWLn4rpS9b7PjXNqcwB8+LlXX0jjuD1Y9lsXVniW2igeAx8LfgHhuBgsb3Ud0GioD0Lq2qWlqzWWip46ctveUgxWO26JkfhPY+d/YyV7aZ1e6vhY8wC+Jq3dXxvHaWm+roB2raUddMco9i294KmHVHF5QYU4l/r6zZHmcxsadc2xalPRXS6d36RBrawG8RXH0V/U9vOc9wJ20OT1ooxqfzuFlEL22EW65C8ZAD/Fvq2m/orJd2n6GnkR2pOx9OW0/3a3tW2ijzrIGdefiOPYGkEr9ZQnwWyX4a8s8vNMuL9o3mEX8Rvvcke3gymhttGv4uge4xEPsqeSNYQAs8KmMB7CclrkqglBNpo458dkvzUn+/P/UeQP2+a1tajp+RUJtD4MjTVsaB//pZGXHWelG6KV9RqkXXIAbaBwrPf9L41MWGmJpxH/yEDP09m8kk0QALex7iJurYVKzsrRoujyh3JUJ8H9jg/9scvhnzvCNBGECSVAKrw4QelzAPS7gGy7AHtpAXnylUPUZY2rPBcy12/ZR2fxUFvyWuckZ7eronswM/ojhfA/w3Ym26bMAlb574ClIV9u1hgNQTboH+PxmNbamVFkNqzSSzIkM4nOjOXxTDZjhypI8GcSX147HPphKYQ2Wj15qZ0DdOp6n1IcCSJs9aT0wBxeN6DTUYPc3bvHtjvM5D/FlOrMx1A2OVRq16zn4ZgbxonG76Vo3RAewM4j/nAF8YzS22mjg9tl3uLfQC47ia9WasiyABLjPA3ydThCNBsxwZUjjXIDdLqgFH4qxbjSEyXzYDPDNtOM87SEepO8ZDAdmqPSC3Yh4KA3wTBrg8ueTSVGTFeXR3Nx4l9kIDbEMwA0uqDV0uLoNYHca4H06P0yzJnXFoNvTREAnBCid8lF+D9Qaz3Fuomfh8ZZ9QrVHj2l0cJvOtbnF72elHefKNMB1bQA3ugD/uMlxrix8VwsRCvmkPIUOPU6oG5kUZpLAJIFJApMEJglMEpgkMEngT5vAzFNnfkoIESW/DIljGWPHW5Z1XODK5DmmNE8ob/Ct00IeGYkUvhwUqmMqlY1EIkG+/iTO+en1dXVnzSz5xGdTJDJVRvq+QNSfORKJFPMFX90otBf54CscU0plLLZbOKEUyFvqy2H2Qh5Tz8R/WFFxyDK4bxriEF2HhbKi/JtmIY33mkafswz+tmWIa4J8Qoh6YfDDZvSDPEFek7FvUT5+Gj+9UA8T28N/VIzzf6O8whBfCeojmCbjK+qF5ZMzmdgroqL/9JMwxB2mwY84n2wy8wlex51Ce5wbliEOMMYKx3BjhnGxxYQfCztu+nwGnz99+vQTLMa7gzSSMwjHhHg0JNeA4LEWE/cX4bxjGjxtGmJf303yBZHi2TErGr28mOc9YfCdpsFfNhk/QMAtJv6T8omzRL1p8Lxp8AMm47vCzorywrm0foAG740x9oNAkphhEsB8COAUk/EFwuALzzWMM03TPM2K8q8V/9iCdgmD30HpQR2BbzH+pJghknRN4CxDHORncoOuY9HoJaYhnrOi1kwrap0XuNNPP/2TdA9mnWlRGpU3DZ6LGbFzKU99XX35ry2ZjH2xCGtv/fT6U6gRMV1ETSbeo/jYDD6X4voBMvFTuqafdYZ1qmnwHmHwP1iWdWoI4NpiliO8EECf6q8vakopQOqGMSbcs5k14IxKuMLRArSYeDJcT7nwtGnTPm0ZYku5tAFxFhM/LmhNlF8bTrAMfnNR426h+ACgMNid/fmk/JhZ6MZ8H41TRYC9wuDd3OA3mAa/sX4Gb+zPH+rClsFfNQ3+fozxNkovBUhjlsnET01DeLEopw+CHXGKkgBaBn+4mEZaWdDM4TTQYmJNWKZy4YoBUjexDHFIRMWccEXWDD6/b0ziv6D4ACCptTD4YmGwpRYrQPAtg2+LRCJTA4BF8AUNMw1+e7jeDzRQ/NY0xCrKK5j4YXEMDHfhQjHBxK0WF4dMxrcLQ/xFU2glpgCQiYMmE+8McAY/HIyBZbswEz0mE7ssZr5iMVZWwysGKAx+b2GgZ2zA5zFNxr5MmmlFGY1vYYA05gWuJ2aIVtM0Z1CeEMAOM8q+Rc4yjAG7ssIAGWNnmAbronbqGV9RMgb2cyftjjHxNyYX60zGFwUQixrYbM4wPzvAGeK5oQBaTGwSQticc+e8uroBOy6CRisGSN2MtMBi7O6gcAFGVPyS4mOMXUXXgQbGGL+HBnVyp5aYO/0AGf9duK5wOAywr17+pZDGkgZ+NZw/HCbgliH20I1T/FBjYClAdkZxFo5GL6npGMg5P7swaxr8QD0Td5qGcVHRPNhvMdFjnWUVPiEcABRR9l/hmwqH+wHS7MXYVTEmvtfveN9kVAqwKdI0lUyRIsQwwGNEVHye7LGgDZqoTMbftAwjMWEAkiBmlF9hGvz3IU2gce1t6sb9whfNmAoAHg7XE4Qto0/DQwCfCuoumA+M7wh34bq6uk+YTDwlGH+G/lTTMC+IMfNBi3GaAPrNmOIkEqoqEhGMrynRwJ6wGVOJBp588sknVjQLF1ueQmNVzOA3mQb/b8sQ14s6QZ9SLwhKeRhj58Si7PuBWTNA4uIFY+wkM8qvLesM8wLKRsZqoR7DCBvMkXMMU1O8WVfXv+GR6otFxSVWVPyYZuR6xv46bHzTDG8xdsSpePrj2ams8EUOy7I+TfKQT+0bhsHrQ4pR7j6KcccJQ3xjiPTJpEkCR4nA/wPTeTfJ/W3hywAAAABJRU5ErkJggg==;" vertex="1" parent="1">
          <mxGeometry x="218.6" y="410" width="80" height="84" as="geometry" />
        </mxCell>
        <mxCell id="1cblipu1BqGZto9yZwqj-258" value="" style="shape=image;verticalLabelPosition=bottom;labelBackgroundColor=#ffffff;verticalAlign=top;aspect=fixed;imageAspect=0;image=data:image/png,iVBORw0KGgoAAAANSUhEUgAAAFAAAABUCAYAAAAVgLC7AAARU0lEQVR4Ae2cC3AcxZmAF+MEQnIBHJ5G3unumRVggq3dnp3/717LFsnhhIPchSTU5SqBXI6kCNyR43jk7uCOcEUlqaQK7lJHyFHhZUyg8BtLsjE5YgjGD+3MroWxsbySMD5eBuwADo5lWztX/2pHjNYraaVdyYJoq7q6p5//fPt39z893ROJTP4mCUwSiEQizVKekEVk7YjgIX7JBbgmjXib6+AdaVB3eYh3tgHe7gFc5yl1aVYldRYgti6V+rM/aYBZG1Me4gMewLYMwhttAH9IAxxOA+TbAPxBXG8aYL/r4Jse4o6sgsVpGy9aFLns2I88TD8SOSbjOHYWnZtdwB0ugJ8eHNRgAAfEU3kP0HcBdmUQb88qpbfOnPnxjxzMTY5Tn1XqGbdPy4bSsAGABtHCsnkIpguw30Nsa9PJho8ERBqrXIBfuI5zYCQwqsnbp5XQm0Vc+LxS539oQWYRv+MB7q8GRrVlXcAeF/H6DxXETCo1PYt4vwvQWy2AWpR3AX0PcWk7QN2EB9mu9Wke4Ku1uPFa15FVeCht22dPWIhppRwXcGe1M2utwYXr8xBe8ZT64oSDSObJFqXKzo7hG5gIYRegxwOQEwaiBzDLBeyuFg7ZhX02HR52AXe7gB0u4hYX4EUX1GtpwENFm6/qP8oFeCOjkvOOOsQXHeczWcBXqoGXRjiUQdybVWqR6+iLB3tEIwM5jdiU1fpXGcS3CGg17bqgcq6UHyOIZOQvmjnz4/fFL5j9SLzpX/zIbVPGHO5tkcgUD2DJMI9eZbWlYKsh7nMd525PO5/bCPDpkQhcfH5OpQF+5gHuJe0dKUwqk0FY92hD48UL4/PuXtAwb9uDs+cdfnD2vEMLG+ZdOBJ5RpU3i/iD0UwYaYCeDOL/rlfqrFE1XFJovVLTXFCPUL2VQNwE4G9wIP+E1IcXNjT2PtQwz39g9tyCe7ih0V+W0P4qqZ9fZVnHlTRVu8tsQ9NJNC5VInA4jwvQ7Sr1Zf+y2j78U1fcAnChB/BiuL0g7BWhrZa6d1E8lV/Y0Ji/PwRtcVz7KxLKby66Fqn81qT619oRC9XkNzVNJQ0aofbls0q9sHGMjdl18dR0D2BDGqA3DTQZwdsZpZ7a4OB3FsbntpGmPTh7rr+godF/LJ7yHw9BC+CR3yL1H1cl9NM0NoZuvTbBzQAXuEMvOR0xHrmIzc+eP+fk2kgwdC1blZqWRbwzo9TfuUqeE6zO/Pr8OScvije2URddWQZcq9R+q1S7m+3UXa126sI1s/RpQ7c0ilT6R1wHHwu6xnA+TTAugkfj1Ciaq3mR5rijWqTaH2hbi1T5Zql2t9j62dV26spV1sgmsxELSAaoi5WbDx7CrnbH4SNuaAwLrJJ4datUB1dJtbE1qb+9RqpzFin1iTFssq9qPxKZkkH8daVjXxrwoOeoS8dcsAobWNvEjs9BfOaLKnnjC8p+cf14QAvLVph5EV8ertsG6R6oe8hWDNdxNMKvfN75TJeWV+e03LBDy7c6tMx3aOl36cS3x1WeTY5jpyvsvrSU1a71Z8dVwGJjNE5vT8Wnd2uY35lK/E+nTu7NadvfruUA1z1HtoyrfC7gzyvpvpTHA/XQuApXbKxbx43ulL2wS9u7tmt5gDStFFxwndNyj3/ZOL0/IcM3oyoznF3A/RsQ2dEAuK1Rntml5e4A0lD+Di39nLYvHxc508mkyCIeYd8F413YdwGyY2KAVninHVpeMxS4cFpOyxcqrLa6bFlHX1zpA7sHcF91rVVXOtc0qy6n7bfDoAYLd2rZuzWZPKO6FisonXbUP1Qy/hHkjQDjO7uVyE/PxV1KbhwMWjg+p6XfqZK6pIraX6YRfxTupoOFM4h+MPsukKnowvjcKx6ZnTqv9hINXePOlH1zLnXkzBuGF4S7lbystDayeUvjqrp2EX85GLRwvAfQs9RuTD0Sn/f4woZ5eXp4XxBv+vOqGh9F4W2pBHaVMV0CaGG/K2VfFzRxj5QnrEzgLa1S3xHE1cR3ARaEQZWE808nMd8idf7Rhjm9Cxrm5mnFg9wjDY35x2Y3fqEmQoygElfKE3Pafj8MqlyYzJzNkHxgRUJdtSKhVi5LqPeWJdBfIdWyETQ3fFbXwYfD0IrjYf5JW/U+1NCYv6+4thYsFz0W14W1NXpYb7Hh68O3UPscHVqSLVjWDiRw7Sh7WxJwmIAtjaO/OOQel6q5phK5iA8WX/i8mobkPWnQX324ofH9YFHyoeL62tJ4maUiW99WU2EqrKwzJdsDgIXJQts9Htg9v7WT+eaEk18Sx3wYWji8rAFrq4EZxO9nNfxVWPYFDXNfoyXw5YUFyA9Wc4OlouaE6m2x9b5VUt0aLjde4c6U7W7X8nBOy9+/lEr+5DUpT1iSwM4wqHLhxxPor3PUvWMuZ7PUXghWocv2LUrqt55I6rtXJ/ErT8jGM8dckEEa6Nby2l0a5r/U1HASZaHVmGUJ9W45aC0S/ads8J9z+l5OuQp+Mki1tYtutfXyvuVvlW+Rat9qmdq6Kqm/O6YvY6oQf6XEBPUWArgkjj6Nfasl+OuL0IIxvm8RGK+uoqnKirbY+ketUm1pkXhtc3zO7OAda2Wlxz/XcqnvXp5Af42N/jNJ8DeWgPsAIB6mV61jImHuIuu4V5qgrlPZV+S03dE1xz4qE8RIb86V8oR1Dr4ZQBrKpy3EHuK5I21jyPxb1XnTXkrJ73Wl7DU7tHwtWCbqTMnf+cW3+0NWcJQT6VVEG8DBocAFaRmAPbR4XJXItJrS0SRP2amSuiNl35XT8h1a/gnMgsDPpezX2/Ws2r+9qkr6Iwv37fQffvcC2bebEVdXvZq0UzvX51Jya4eW+wNtC6CF/Q4te3Mp+y+PFHnixNA2Yw9xX6BhQ/keFjasz69a+m6d+O5Q4MIQO7XcRmNj1Y2OQQWkSRmlFg8FLZzmArxetfbRfXRJeWKHlu+FQQ0WJtA0qYzB/VddpeeoL7gAfwxDGirsOs6vqm6UKqB/YYeWzw4GrTS+U9veRNPC9VKeU2nXJai0lknb52oCkCrJaXl9pd2YgHal7HsnwmtMkn1rU9OnPAczQ2lbaZrnqNruhaFu3KntV0u1bbDrDi0Pd2v7a8E/+ND8WZ+krRTLJfz7CqmWr5w1d1x2KNC2uTSo9ZW+gihq3/vuWJwp2ZGybxoMWLn4rpS9b7PjXNqcwB8+LlXX0jjuD1Y9lsXVniW2igeAx8LfgHhuBgsb3Ud0GioD0Lq2qWlqzWWip46ctveUgxWO26JkfhPY+d/YyV7aZ1e6vhY8wC+Jq3dXxvHaWm+roB2raUddMco9i294KmHVHF5QYU4l/r6zZHmcxsadc2xalPRXS6d36RBrawG8RXH0V/U9vOc9wJ20OT1ooxqfzuFlEL22EW65C8ZAD/Fvq2m/orJd2n6GnkR2pOx9OW0/3a3tW2ijzrIGdefiOPYGkEr9ZQnwWyX4a8s8vNMuL9o3mEX8Rvvcke3gymhttGv4uge4xEPsqeSNYQAs8KmMB7CclrkqglBNpo458dkvzUn+/P/UeQP2+a1tajp+RUJtD4MjTVsaB//pZGXHWelG6KV9RqkXXIAbaBwrPf9L41MWGmJpxH/yEDP09m8kk0QALex7iJurYVKzsrRoujyh3JUJ8H9jg/9scvhnzvCNBGECSVAKrw4QelzAPS7gGy7AHtpAXnylUPUZY2rPBcy12/ZR2fxUFvyWuckZ7eronswM/ojhfA/w3Ym26bMAlb574ClIV9u1hgNQTboH+PxmNbamVFkNqzSSzIkM4nOjOXxTDZjhypI8GcSX147HPphKYQ2Wj15qZ0DdOp6n1IcCSJs9aT0wBxeN6DTUYPc3bvHtjvM5D/FlOrMx1A2OVRq16zn4ZgbxonG76Vo3RAewM4j/nAF8YzS22mjg9tl3uLfQC47ia9WasiyABLjPA3ydThCNBsxwZUjjXIDdLqgFH4qxbjSEyXzYDPDNtOM87SEepO8ZDAdmqPSC3Yh4KA3wTBrg8ueTSVGTFeXR3Nx4l9kIDbEMwA0uqDV0uLoNYHca4H06P0yzJnXFoNvTREAnBCid8lF+D9Qaz3Fuomfh8ZZ9QrVHj2l0cJvOtbnF72elHefKNMB1bQA3ugD/uMlxrix8VwsRCvmkPIUOPU6oG5kUZpLAJIFJApMEJglMEpgkMEngT5vAzFNnfkoIESW/DIljGWPHW5Z1XODK5DmmNE8ob/Ct00IeGYkUvhwUqmMqlY1EIkG+/iTO+en1dXVnzSz5xGdTJDJVRvq+QNSfORKJFPMFX90otBf54CscU0plLLZbOKEUyFvqy2H2Qh5Tz8R/WFFxyDK4bxriEF2HhbKi/JtmIY33mkafswz+tmWIa4J8Qoh6YfDDZvSDPEFek7FvUT5+Gj+9UA8T28N/VIzzf6O8whBfCeojmCbjK+qF5ZMzmdgroqL/9JMwxB2mwY84n2wy8wlex51Ce5wbliEOMMYKx3BjhnGxxYQfCztu+nwGnz99+vQTLMa7gzSSMwjHhHg0JNeA4LEWE/cX4bxjGjxtGmJf303yBZHi2TErGr28mOc9YfCdpsFfNhk/QMAtJv6T8omzRL1p8Lxp8AMm47vCzorywrm0foAG740x9oNAkphhEsB8COAUk/EFwuALzzWMM03TPM2K8q8V/9iCdgmD30HpQR2BbzH+pJghknRN4CxDHORncoOuY9HoJaYhnrOi1kwrap0XuNNPP/2TdA9mnWlRGpU3DZ6LGbFzKU99XX35ry2ZjH2xCGtv/fT6U6gRMV1ETSbeo/jYDD6X4voBMvFTuqafdYZ1qmnwHmHwP1iWdWoI4NpiliO8EECf6q8vakopQOqGMSbcs5k14IxKuMLRArSYeDJcT7nwtGnTPm0ZYku5tAFxFhM/LmhNlF8bTrAMfnNR426h+ACgMNid/fmk/JhZ6MZ8H41TRYC9wuDd3OA3mAa/sX4Gb+zPH+rClsFfNQ3+fozxNkovBUhjlsnET01DeLEopw+CHXGKkgBaBn+4mEZaWdDM4TTQYmJNWKZy4YoBUjexDHFIRMWccEXWDD6/b0ziv6D4ACCptTD4YmGwpRYrQPAtg2+LRCJTA4BF8AUNMw1+e7jeDzRQ/NY0xCrKK5j4YXEMDHfhQjHBxK0WF4dMxrcLQ/xFU2glpgCQiYMmE+8McAY/HIyBZbswEz0mE7ssZr5iMVZWwysGKAx+b2GgZ2zA5zFNxr5MmmlFGY1vYYA05gWuJ2aIVtM0Z1CeEMAOM8q+Rc4yjAG7ssIAGWNnmAbronbqGV9RMgb2cyftjjHxNyYX60zGFwUQixrYbM4wPzvAGeK5oQBaTGwSQticc+e8uroBOy6CRisGSN2MtMBi7O6gcAFGVPyS4mOMXUXXgQbGGL+HBnVyp5aYO/0AGf9duK5wOAywr17+pZDGkgZ+NZw/HCbgliH20I1T/FBjYClAdkZxFo5GL6npGMg5P7swaxr8QD0Td5qGcVHRPNhvMdFjnWUVPiEcABRR9l/hmwqH+wHS7MXYVTEmvtfveN9kVAqwKdI0lUyRIsQwwGNEVHye7LGgDZqoTMbftAwjMWEAkiBmlF9hGvz3IU2gce1t6sb9whfNmAoAHg7XE4Qto0/DQwCfCuoumA+M7wh34bq6uk+YTDwlGH+G/lTTMC+IMfNBi3GaAPrNmOIkEqoqEhGMrynRwJ6wGVOJBp588sknVjQLF1ueQmNVzOA3mQb/b8sQ14s6QZ9SLwhKeRhj58Si7PuBWTNA4uIFY+wkM8qvLesM8wLKRsZqoR7DCBvMkXMMU1O8WVfXv+GR6otFxSVWVPyYZuR6xv46bHzTDG8xdsSpePrj2ams8EUOy7I+TfKQT+0bhsHrQ4pR7j6KcccJQ3xjiPTJpEkCR4nA/wPTeTfJ/W3hywAAAABJRU5ErkJggg==;" vertex="1" parent="1">
          <mxGeometry x="335" y="410" width="80" height="84" as="geometry" />
        </mxCell>
        <mxCell id="1cblipu1BqGZto9yZwqj-259" value="Cluster A" style="text;html=1;strokeColor=none;fillColor=none;align=center;verticalAlign=middle;whiteSpace=wrap;rounded=0;" vertex="1" parent="1">
          <mxGeometry x="100" y="510" width="80" height="20" as="geometry" />
        </mxCell>
        <mxCell id="1cblipu1BqGZto9yZwqj-260" value="Cluster B&lt;span style=&quot;color: rgba(0 , 0 , 0 , 0) ; font-family: monospace ; font-size: 0px&quot;&gt;%3CmxGraphModel%3E%3Croot%3E%3CmxCell%20id%3D%220%22%2F%3E%3CmxCell%20id%3D%221%22%20parent%3D%220%22%2F%3E%3CmxCell%20id%3D%222%22%20value%3D%22Cluster%20A%22%20style%3D%22text%3Bhtml%3D1%3BstrokeColor%3Dnone%3BfillColor%3Dnone%3Balign%3Dcenter%3BverticalAlign%3Dmiddle%3BwhiteSpace%3Dwrap%3Brounded%3D0%3B%22%20vertex%3D%221%22%20parent%3D%221%22%3E%3CmxGeometry%20x%3D%2230%22%20y%3D%22540%22%20width%3D%2280%22%20height%3D%2220%22%20as%3D%22geometry%22%2F%3E%3C%2FmxCell%3E%3C%2Froot%3E%3C%2FmxGraphModel%3E&lt;/span&gt;" style="text;html=1;strokeColor=none;fillColor=none;align=center;verticalAlign=middle;whiteSpace=wrap;rounded=0;" vertex="1" parent="1">
          <mxGeometry x="218.6" y="510" width="80" height="20" as="geometry" />
        </mxCell>
        <mxCell id="1cblipu1BqGZto9yZwqj-261" value="Cluster C" style="text;html=1;strokeColor=none;fillColor=none;align=center;verticalAlign=middle;whiteSpace=wrap;rounded=0;" vertex="1" parent="1">
          <mxGeometry x="335" y="510" width="80" height="20" as="geometry" />
        </mxCell>
        <mxCell id="1cblipu1BqGZto9yZwqj-262" value="" style="aspect=fixed;perimeter=ellipsePerimeter;html=1;align=center;shadow=0;dashed=0;fontColor=#4277BB;labelBackgroundColor=#ffffff;fontSize=12;spacingTop=3;image;image=img/lib/ibm/devops/continuous_deploy.svg;" vertex="1" parent="1">
          <mxGeometry x="229" y="286" width="60" height="60" as="geometry" />
        </mxCell>
        <mxCell id="1cblipu1BqGZto9yZwqj-263" value="" style="aspect=fixed;perimeter=ellipsePerimeter;html=1;align=center;shadow=0;dashed=0;fontColor=#4277BB;labelBackgroundColor=#ffffff;fontSize=12;spacingTop=3;image;image=img/lib/ibm/devops/artifact_management.svg;" vertex="1" parent="1">
          <mxGeometry x="405" y="60" width="60" height="60" as="geometry" />
        </mxCell>
        <mxCell id="1cblipu1BqGZto9yZwqj-265" value="Applications&lt;br&gt;- URL&lt;br&gt;- Path&lt;br&gt;- Branch" style="text;html=1;strokeColor=none;fillColor=none;align=center;verticalAlign=middle;whiteSpace=wrap;rounded=0;" vertex="1" parent="1">
          <mxGeometry x="380" y="140" width="110" height="20" as="geometry" />
        </mxCell>
        <mxCell id="1cblipu1BqGZto9yZwqj-267" value="" style="endArrow=classic;html=1;fillColor=#99FFFF;exitX=1;exitY=1;exitDx=0;exitDy=0;" edge="1" parent="1" source="1cblipu1BqGZto9yZwqj-263" target="1cblipu1BqGZto9yZwqj-216">
          <mxGeometry width="50" height="50" relative="1" as="geometry">
            <mxPoint x="680" y="510" as="sourcePoint" />
            <mxPoint x="730" y="460" as="targetPoint" />
          </mxGeometry>
        </mxCell>
        <mxCell id="1cblipu1BqGZto9yZwqj-268" value="" style="endArrow=classic;html=1;fillColor=#99FFFF;exitX=1;exitY=0.75;exitDx=0;exitDy=0;" edge="1" parent="1" source="1cblipu1BqGZto9yZwqj-263" target="1cblipu1BqGZto9yZwqj-217">
          <mxGeometry width="50" height="50" relative="1" as="geometry">
            <mxPoint x="466.21320343559637" y="121.21320343559637" as="sourcePoint" />
            <mxPoint x="730" y="434" as="targetPoint" />
          </mxGeometry>
        </mxCell>
        <mxCell id="1cblipu1BqGZto9yZwqj-269" value="" style="endArrow=classic;html=1;fillColor=#99FFFF;exitX=1;exitY=0.5;exitDx=0;exitDy=0;" edge="1" parent="1" source="1cblipu1BqGZto9yZwqj-263" target="1cblipu1BqGZto9yZwqj-218">
          <mxGeometry width="50" height="50" relative="1" as="geometry">
            <mxPoint x="476.21320343559637" y="131.21320343559637" as="sourcePoint" />
            <mxPoint x="860" y="430" as="targetPoint" />
          </mxGeometry>
        </mxCell>
      </root>
    </mxGraphModel>
  </diagram>
</mxfile>
